<?xml version="1.0" encoding="utf-8" standalone="no"?>
<!DOCTYPE svg PUBLIC "-//W3C//DTD SVG 1.1//EN"
  "http://www.w3.org/Graphics/SVG/1.1/DTD/svg11.dtd">
<svg xmlns:xlink="http://www.w3.org/1999/xlink" width="648pt" height="288pt" viewBox="0 0 648 288" xmlns="http://www.w3.org/2000/svg" version="1.1">
 <metadata>
  <rdf:RDF xmlns:dc="http://purl.org/dc/elements/1.1/" xmlns:cc="http://creativecommons.org/ns#" xmlns:rdf="http://www.w3.org/1999/02/22-rdf-syntax-ns#">
   <cc:Work>
    <dc:type rdf:resource="http://purl.org/dc/dcmitype/StillImage"/>
    <dc:date>2022-03-09T13:57:19.118922</dc:date>
    <dc:format>image/svg+xml</dc:format>
    <dc:creator>
     <cc:Agent>
      <dc:title>Matplotlib v3.5.1, https://matplotlib.org/</dc:title>
     </cc:Agent>
    </dc:creator>
   </cc:Work>
  </rdf:RDF>
 </metadata>
 <defs>
  <style type="text/css">*{stroke-linejoin: round; stroke-linecap: butt}</style>
 </defs>
 <g id="figure_1">
  <g id="patch_1">
   <path d="M 0 288 
L 648 288 
L 648 0 
L 0 0 
z
" style="fill: #ffffff"/>
  </g>
  <g id="axes_1">
   <g id="patch_2">
    <path d="M 68.51 244.065608 
L 595.51 244.065608 
L 595.51 15.125625 
L 68.51 15.125625 
z
" style="fill: #ffffff"/>
   </g>
   <g id="matplotlib.axis_1">
    <g id="xtick_1">
     <g id="line2d_1">
      <defs>
       <path id="m6d09c08c71" d="M 0 0 
L 0 3.5 
" style="stroke: #000000; stroke-width: 0.8"/>
      </defs>
      <g>
       <use xlink:href="#m6d09c08c71" x="136.46269" y="244.065608" style="stroke: #000000; stroke-width: 0.8"/>
      </g>
     </g>
    </g>
    <g id="xtick_2">
     <g id="line2d_2">
      <g>
       <use xlink:href="#m6d09c08c71" x="234.236345" y="244.065608" style="stroke: #000000; stroke-width: 0.8"/>
      </g>
     </g>
     <g id="text_1">
      <!-- Adaboost -->
      <g transform="translate(214.123422 274.104015)rotate(-20)scale(0.12 -0.12)">
       <defs>
        <path id="FreeSerif-41" d="M 4518 122 
C 4230 141 4154 198 3942 678 
L 2349 4314 
L 2221 4314 
L 890 1171 
C 493 230 403 134 96 122 
L 96 0 
L 1363 0 
L 1363 122 
C 1056 122 928 205 928 384 
C 928 461 947 550 979 634 
L 1274 1382 
L 2950 1382 
L 3213 768 
C 3290 595 3334 429 3334 339 
C 3334 179 3226 128 2886 122 
L 2886 0 
L 4518 0 
L 4518 122 
z
M 1382 1645 
L 2118 3405 
L 2861 1645 
L 1382 1645 
z
" transform="scale(0.015625)"/>
        <path id="FreeSerif-64" d="M 2189 -64 
L 3130 269 
L 3130 371 
C 3014 365 3002 365 2982 365 
C 2752 365 2701 435 2701 730 
L 2701 4358 
L 2669 4371 
C 2362 4262 2138 4198 1728 4090 
L 1728 3987 
C 1779 3994 1818 3994 1869 3994 
C 2106 3994 2163 3930 2163 3667 
L 2163 2669 
C 1920 2874 1747 2944 1491 2944 
C 755 2944 160 2221 160 1312 
C 160 493 640 -64 1344 -64 
C 1702 -64 1946 64 2163 365 
L 2163 -45 
L 2189 -64 
z
M 1594 269 
C 1062 269 710 781 710 1568 
C 710 2291 1024 2765 1510 2765 
C 1850 2765 2163 2464 2163 2125 
L 2163 653 
C 2163 544 1958 269 1594 269 
z
" transform="scale(0.015625)"/>
        <path id="FreeSerif-61" d="M 160 621 
C 160 218 442 -64 832 -64 
C 1114 -64 1376 70 1766 403 
C 1798 70 1914 -64 2176 -64 
C 2394 -64 2528 13 2752 256 
L 2752 422 
C 2643 333 2566 301 2470 301 
C 2323 301 2278 390 2278 672 
L 2278 1920 
C 2278 2560 2099 2944 1357 2944 
C 755 2944 282 2630 282 2227 
C 282 2080 410 1952 557 1952 
C 710 1952 845 2080 845 2221 
C 845 2278 813 2387 813 2477 
C 813 2650 1018 2790 1274 2790 
C 1587 2790 1760 2605 1760 2259 
L 1760 1869 
C 966 1549 160 1312 160 621 
z
M 1760 787 
C 1760 589 1728 531 1594 454 
C 1440 365 1261 307 1126 307 
C 966 307 723 442 723 826 
C 723 1203 986 1434 1760 1715 
L 1760 787 
z
" transform="scale(0.015625)"/>
        <path id="FreeSerif-62" d="M 1024 4358 
L 992 4371 
C 685 4256 378 4166 64 4090 
L 64 3987 
C 102 3994 128 3994 173 3994 
C 429 3994 486 3936 486 3667 
L 486 346 
C 486 147 1030 -64 1542 -64 
C 2387 -64 3040 640 3040 1555 
C 3040 2342 2554 2944 1914 2944 
C 1523 2944 1152 2714 1024 2400 
L 1024 4358 
z
M 1024 2061 
C 1024 2310 1325 2541 1658 2541 
C 2157 2541 2477 2042 2477 1261 
C 2477 550 2170 141 1645 141 
C 1312 141 1024 288 1024 448 
L 1024 2061 
z
" transform="scale(0.015625)"/>
        <path id="FreeSerif-6f" d="M 1574 2944 
C 742 2944 160 2330 160 1446 
C 160 582 755 -64 1562 -64 
C 2368 -64 2982 614 2982 1498 
C 2982 2336 2394 2944 1574 2944 
z
M 736 1760 
C 736 2368 1037 2765 1491 2765 
C 2029 2765 2406 2150 2406 1274 
C 2406 550 2118 115 1638 115 
C 1088 115 736 870 736 1760 
z
" transform="scale(0.015625)"/>
        <path id="FreeSerif-73" d="M 1715 2816 
C 1574 2816 1466 2938 1094 2938 
C 589 2938 224 2611 224 2150 
C 224 1792 429 1536 973 1229 
L 1344 1018 
C 1568 890 1677 736 1677 538 
C 1677 256 1472 77 1146 77 
C 493 77 390 717 333 973 
L 230 973 
L 230 -26 
L 314 -26 
C 358 38 384 51 461 51 
C 621 51 934 -64 1222 -64 
C 1715 -64 2125 307 2125 755 
C 2125 1075 1971 1286 1587 1517 
L 896 1926 
C 717 2029 621 2189 621 2362 
C 621 2618 819 2797 1114 2797 
C 1478 2797 1670 2579 1818 2010 
L 1914 2010 
L 1888 2880 
L 1818 2880 
C 1779 2854 1754 2816 1715 2816 
z
" transform="scale(0.015625)"/>
        <path id="FreeSerif-74" d="M 1658 2880 
L 1011 2880 
L 1011 3622 
C 1011 3686 1005 3706 966 3706 
C 922 3648 883 3590 838 3526 
C 269 2707 109 2848 109 2720 
C 109 2701 115 2688 134 2675 
L 474 2675 
L 474 749 
C 474 211 666 -64 1043 -64 
C 1357 -64 1600 90 1811 422 
L 1728 493 
C 1594 333 1485 269 1344 269 
C 1107 269 1011 442 1011 845 
L 1011 2675 
L 1658 2675 
L 1658 2880 
z
" transform="scale(0.015625)"/>
       </defs>
       <use xlink:href="#FreeSerif-41"/>
       <use xlink:href="#FreeSerif-64" x="69.099991"/>
       <use xlink:href="#FreeSerif-61" x="118.999985"/>
       <use xlink:href="#FreeSerif-62" x="161.499969"/>
       <use xlink:href="#FreeSerif-6f" x="211.499954"/>
       <use xlink:href="#FreeSerif-6f" x="260.599945"/>
       <use xlink:href="#FreeSerif-73" x="309.699936"/>
       <use xlink:href="#FreeSerif-74" x="345.399933"/>
      </g>
     </g>
    </g>
    <g id="xtick_3">
     <g id="line2d_3">
      <g>
       <use xlink:href="#m6d09c08c71" x="332.01" y="244.065608" style="stroke: #000000; stroke-width: 0.8"/>
      </g>
     </g>
    </g>
    <g id="xtick_4">
     <g id="line2d_4">
      <g>
       <use xlink:href="#m6d09c08c71" x="429.783655" y="244.065608" style="stroke: #000000; stroke-width: 0.8"/>
      </g>
     </g>
     <g id="text_2">
      <!-- MLP -->
      <g transform="translate(419.081166 267.253779)rotate(-20)scale(0.12 -0.12)">
       <defs>
        <path id="FreeSerif-4d" d="M 4333 3667 
L 4333 768 
C 4333 237 4256 154 3750 122 
L 3750 0 
L 5542 0 
L 5542 122 
C 5075 154 4986 243 4986 698 
L 4986 3539 
C 4986 3994 5069 4077 5542 4115 
L 5542 4237 
L 4269 4237 
L 2854 1005 
L 1376 4237 
L 109 4237 
L 109 4115 
C 634 4083 717 4006 717 3539 
L 717 941 
C 717 282 627 160 96 122 
L 96 0 
L 1600 0 
L 1600 122 
C 1107 147 998 294 998 941 
L 998 3520 
L 2605 0 
L 2694 0 
L 4333 3667 
z
" transform="scale(0.015625)"/>
        <path id="FreeSerif-4c" d="M 2285 250 
L 1856 250 
C 1389 250 1306 288 1306 512 
L 1306 3539 
C 1306 3994 1395 4083 1901 4115 
L 1901 4237 
L 96 4237 
L 96 4115 
C 570 4077 653 3987 653 3539 
L 653 698 
C 653 250 563 154 96 122 
L 96 0 
L 3539 0 
L 3846 1114 
L 3686 1114 
C 3558 819 3405 250 2285 250 
z
" transform="scale(0.015625)"/>
        <path id="FreeSerif-50" d="M 3462 3078 
C 3462 4006 2477 4237 1786 4237 
L 96 4237 
L 96 4115 
C 570 4064 634 4000 634 3539 
L 634 768 
C 634 230 582 166 96 122 
L 96 0 
L 1888 0 
L 1888 122 
C 1382 141 1286 230 1286 698 
L 1286 1862 
C 1453 1850 1562 1843 1728 1843 
C 3200 1843 3462 2586 3462 3078 
z
M 1286 3782 
C 1286 3955 1331 4000 1504 4000 
C 2368 4000 2765 3699 2765 3040 
C 2765 2419 2387 2099 1651 2099 
C 1523 2099 1434 2106 1286 2118 
L 1286 3782 
z
" transform="scale(0.015625)"/>
       </defs>
       <use xlink:href="#FreeSerif-4d"/>
       <use xlink:href="#FreeSerif-4c" x="88.099991"/>
       <use xlink:href="#FreeSerif-50" x="149.199982"/>
      </g>
     </g>
    </g>
    <g id="xtick_5">
     <g id="line2d_5">
      <g>
       <use xlink:href="#m6d09c08c71" x="527.55731" y="244.065608" style="stroke: #000000; stroke-width: 0.8"/>
      </g>
     </g>
    </g>
   </g>
   <g id="matplotlib.axis_2">
    <g id="ytick_1">
     <g id="line2d_6">
      <path d="M 68.51 244.065608 
L 595.51 244.065608 
" clip-path="url(#p640591f1a8)" style="fill: none; stroke-dasharray: 0.8,1.32; stroke-dashoffset: 0; stroke: #b0b0b0; stroke-opacity: 0.8; stroke-width: 0.8"/>
     </g>
     <g id="line2d_7">
      <defs>
       <path id="m8a7f5b9fe7" d="M 0 0 
L -3.5 0 
" style="stroke: #000000; stroke-width: 0.8"/>
      </defs>
      <g>
       <use xlink:href="#m8a7f5b9fe7" x="68.51" y="244.065608" style="stroke: #000000; stroke-width: 0.8"/>
      </g>
     </g>
     <g id="text_3">
      <!-- 0.0% -->
      <g transform="translate(36.514375 248.163421)scale(0.12 -0.12)">
       <defs>
        <path id="FreeSerif-30" d="M 1600 -90 
C 2483 -90 3046 832 3046 2112 
C 3046 3424 2464 4326 1626 4326 
C 691 4326 154 3341 154 2150 
C 154 858 717 -90 1600 -90 
z
M 1606 4160 
C 2144 4160 2432 3437 2432 2099 
C 2432 762 2150 77 1600 77 
C 1050 77 768 762 768 2093 
C 768 3450 1056 4160 1606 4160 
z
" transform="scale(0.015625)"/>
        <path id="FreeSerif-2e" d="M 800 640 
C 608 640 448 474 448 275 
C 448 90 608 -70 794 -70 
C 992 -70 1158 90 1158 275 
C 1158 474 992 640 800 640 
z
" transform="scale(0.015625)"/>
        <path id="FreeSerif-25" d="M 4282 2374 
C 3558 2374 2874 1626 2874 826 
C 2874 326 3181 0 3642 0 
C 3930 0 4166 102 4390 326 
C 4730 672 4941 1190 4941 1690 
C 4941 2125 4698 2374 4282 2374 
z
M 3750 192 
C 3520 192 3360 358 3360 602 
C 3360 928 3680 2170 4326 2170 
C 4570 2170 4774 1939 4774 1658 
C 4774 1062 4326 192 3750 192 
z
M 1805 4237 
C 1075 4237 390 3475 390 2662 
C 390 2214 730 1850 1146 1850 
C 1926 1850 2458 2784 2458 3514 
C 2458 3603 2445 3680 2413 3795 
C 2528 3750 2643 3731 2829 3731 
C 3110 3731 3277 3776 3533 3923 
L 1286 -83 
L 1594 -83 
L 4058 4326 
L 3808 4326 
C 3462 4000 3206 3891 2810 3891 
C 2182 3891 2291 4237 1805 4237 
z
M 1805 4045 
C 1894 4045 1862 3942 2240 3840 
C 2278 3712 2298 3616 2298 3526 
C 2298 2803 1773 2067 1254 2067 
C 1030 2067 877 2227 877 2458 
C 877 3053 1376 4045 1805 4045 
z
" transform="scale(0.015625)"/>
       </defs>
       <use xlink:href="#FreeSerif-30"/>
       <use xlink:href="#FreeSerif-2e" x="49.999985"/>
       <use xlink:href="#FreeSerif-30" x="74.999969"/>
       <use xlink:href="#FreeSerif-25" x="124.999954"/>
      </g>
     </g>
    </g>
    <g id="ytick_2">
     <g id="line2d_8">
      <path d="M 68.51 198.277612 
L 595.51 198.277612 
" clip-path="url(#p640591f1a8)" style="fill: none; stroke-dasharray: 0.8,1.32; stroke-dashoffset: 0; stroke: #b0b0b0; stroke-opacity: 0.8; stroke-width: 0.8"/>
     </g>
     <g id="line2d_9">
      <g>
       <use xlink:href="#m8a7f5b9fe7" x="68.51" y="198.277612" style="stroke: #000000; stroke-width: 0.8"/>
      </g>
     </g>
     <g id="text_4">
      <!-- 20.0% -->
      <g transform="translate(30.514375 202.375424)scale(0.12 -0.12)">
       <defs>
        <path id="FreeSerif-32" d="M 198 3053 
L 333 3021 
C 589 3648 819 3853 1261 3853 
C 1798 3853 2163 3488 2163 2950 
C 2163 2451 1869 1856 1331 1286 
L 192 77 
L 192 0 
L 2688 0 
L 3040 877 
L 2957 909 
C 2720 544 2637 486 2349 486 
L 819 486 
L 1894 1613 
C 2464 2208 2714 2694 2714 3194 
C 2714 3834 2195 4326 1530 4326 
C 499 4326 269 3354 198 3053 
z
" transform="scale(0.015625)"/>
       </defs>
       <use xlink:href="#FreeSerif-32"/>
       <use xlink:href="#FreeSerif-30" x="49.999985"/>
       <use xlink:href="#FreeSerif-2e" x="99.999969"/>
       <use xlink:href="#FreeSerif-30" x="124.999954"/>
       <use xlink:href="#FreeSerif-25" x="174.999939"/>
      </g>
     </g>
    </g>
    <g id="ytick_3">
     <g id="line2d_10">
      <path d="M 68.51 152.489615 
L 595.51 152.489615 
" clip-path="url(#p640591f1a8)" style="fill: none; stroke-dasharray: 0.8,1.32; stroke-dashoffset: 0; stroke: #b0b0b0; stroke-opacity: 0.8; stroke-width: 0.8"/>
     </g>
     <g id="line2d_11">
      <g>
       <use xlink:href="#m8a7f5b9fe7" x="68.51" y="152.489615" style="stroke: #000000; stroke-width: 0.8"/>
      </g>
     </g>
     <g id="text_5">
      <!-- 40.0% -->
      <g transform="translate(30.514375 156.587428)scale(0.12 -0.12)">
       <defs>
        <path id="FreeSerif-34" d="M 3021 1478 
L 2368 1478 
L 2368 4326 
L 2086 4326 
L 77 1478 
L 77 1069 
L 1875 1069 
L 1875 0 
L 2368 0 
L 2368 1069 
L 3021 1069 
L 3021 1478 
z
M 1869 1478 
L 333 1478 
L 1869 3674 
L 1869 1478 
z
" transform="scale(0.015625)"/>
       </defs>
       <use xlink:href="#FreeSerif-34"/>
       <use xlink:href="#FreeSerif-30" x="49.999985"/>
       <use xlink:href="#FreeSerif-2e" x="99.999969"/>
       <use xlink:href="#FreeSerif-30" x="124.999954"/>
       <use xlink:href="#FreeSerif-25" x="174.999939"/>
      </g>
     </g>
    </g>
    <g id="ytick_4">
     <g id="line2d_12">
      <path d="M 68.51 106.701618 
L 595.51 106.701618 
" clip-path="url(#p640591f1a8)" style="fill: none; stroke-dasharray: 0.8,1.32; stroke-dashoffset: 0; stroke: #b0b0b0; stroke-opacity: 0.8; stroke-width: 0.8"/>
     </g>
     <g id="line2d_13">
      <g>
       <use xlink:href="#m8a7f5b9fe7" x="68.51" y="106.701618" style="stroke: #000000; stroke-width: 0.8"/>
      </g>
     </g>
     <g id="text_6">
      <!-- 60.0% -->
      <g transform="translate(30.514375 110.799431)scale(0.12 -0.12)">
       <defs>
        <path id="FreeSerif-36" d="M 1651 -90 
C 2445 -90 2995 518 2995 1402 
C 2995 2221 2528 2739 1792 2739 
C 1510 2739 1376 2694 973 2451 
C 1146 3418 1862 4109 2867 4275 
L 2854 4378 
C 582 4179 218 2534 218 1786 
C 218 659 794 -90 1651 -90 
z
M 1549 2445 
C 2099 2445 2419 1984 2419 1184 
C 2419 480 2170 90 1722 90 
C 1158 90 813 691 813 1683 
C 813 2131 922 2445 1549 2445 
z
" transform="scale(0.015625)"/>
       </defs>
       <use xlink:href="#FreeSerif-36"/>
       <use xlink:href="#FreeSerif-30" x="49.999985"/>
       <use xlink:href="#FreeSerif-2e" x="99.999969"/>
       <use xlink:href="#FreeSerif-30" x="124.999954"/>
       <use xlink:href="#FreeSerif-25" x="174.999939"/>
      </g>
     </g>
    </g>
    <g id="ytick_5">
     <g id="line2d_14">
      <path d="M 68.51 60.913622 
L 595.51 60.913622 
" clip-path="url(#p640591f1a8)" style="fill: none; stroke-dasharray: 0.8,1.32; stroke-dashoffset: 0; stroke: #b0b0b0; stroke-opacity: 0.8; stroke-width: 0.8"/>
     </g>
     <g id="line2d_15">
      <g>
       <use xlink:href="#m8a7f5b9fe7" x="68.51" y="60.913622" style="stroke: #000000; stroke-width: 0.8"/>
      </g>
     </g>
     <g id="text_7">
      <!-- 80.0% -->
      <g transform="translate(30.514375 65.011434)scale(0.12 -0.12)">
       <defs>
        <path id="FreeSerif-38" d="M 1856 2374 
C 2490 2714 2714 2982 2714 3418 
C 2714 3942 2253 4326 1613 4326 
C 915 4326 397 3898 397 3315 
C 397 2899 518 2714 1190 2125 
C 499 1600 358 1402 358 966 
C 358 346 864 -90 1587 -90 
C 2355 -90 2848 333 2848 992 
C 2848 1485 2630 1798 1856 2374 
z
M 1357 1997 
C 1978 1542 2362 1331 2362 794 
C 2362 378 2074 90 1658 90 
C 1171 90 845 461 845 1018 
C 845 1427 986 1696 1357 1997 
z
M 1670 2490 
C 1101 2861 870 3155 870 3514 
C 870 3885 1158 4147 1562 4147 
C 1997 4147 2272 3866 2272 3424 
C 2272 2861 1850 2624 1670 2490 
z
" transform="scale(0.015625)"/>
       </defs>
       <use xlink:href="#FreeSerif-38"/>
       <use xlink:href="#FreeSerif-30" x="49.999985"/>
       <use xlink:href="#FreeSerif-2e" x="99.999969"/>
       <use xlink:href="#FreeSerif-30" x="124.999954"/>
       <use xlink:href="#FreeSerif-25" x="174.999939"/>
      </g>
     </g>
    </g>
    <g id="ytick_6">
     <g id="line2d_16">
      <path d="M 68.51 15.125625 
L 595.51 15.125625 
" clip-path="url(#p640591f1a8)" style="fill: none; stroke-dasharray: 0.8,1.32; stroke-dashoffset: 0; stroke: #b0b0b0; stroke-opacity: 0.8; stroke-width: 0.8"/>
     </g>
     <g id="line2d_17">
      <g>
       <use xlink:href="#m8a7f5b9fe7" x="68.51" y="15.125625" style="stroke: #000000; stroke-width: 0.8"/>
      </g>
     </g>
     <g id="text_8">
      <!-- 100.0% -->
      <g transform="translate(24.514375 19.223437)scale(0.12 -0.12)">
       <defs>
        <path id="FreeSerif-31" d="M 1171 3795 
C 1306 3795 1363 3699 1363 3494 
L 1363 595 
C 1363 179 1210 109 755 96 
L 755 0 
L 2522 0 
L 2522 96 
C 2016 102 1914 166 1914 474 
L 1914 4314 
L 1862 4326 
L 710 3744 
L 710 3654 
C 960 3757 1075 3795 1171 3795 
z
" transform="scale(0.015625)"/>
       </defs>
       <use xlink:href="#FreeSerif-31"/>
       <use xlink:href="#FreeSerif-30" x="49.999985"/>
       <use xlink:href="#FreeSerif-30" x="99.999969"/>
       <use xlink:href="#FreeSerif-2e" x="149.999954"/>
       <use xlink:href="#FreeSerif-30" x="174.999939"/>
       <use xlink:href="#FreeSerif-25" x="224.999924"/>
      </g>
     </g>
    </g>
    <g id="text_9">
     <!-- Accuracy -->
     <g transform="translate(18.334688 148.065929)rotate(-90)scale(0.1 -0.1)">
      <defs>
       <path id="FreeSerif-63" d="M 160 1363 
C 160 531 666 -64 1376 -64 
C 2131 -64 2502 678 2637 941 
L 2547 998 
C 2240 550 2010 397 1645 397 
C 1062 397 653 909 653 1645 
C 653 2304 1005 2758 1523 2758 
C 1754 2758 1837 2688 1901 2451 
L 1939 2310 
C 1990 2131 2106 2016 2240 2016 
C 2406 2016 2547 2138 2547 2285 
C 2547 2643 2099 2944 1562 2944 
C 851 2944 160 2349 160 1363 
z
" transform="scale(0.015625)"/>
       <path id="FreeSerif-75" d="M 3072 320 
L 3040 320 
C 2746 320 2675 390 2675 685 
L 2675 2880 
L 1664 2880 
L 1664 2771 
C 2061 2752 2138 2688 2138 2368 
L 2138 864 
C 2138 378 1581 307 1453 307 
C 1203 307 998 525 998 794 
L 998 2880 
L 64 2880 
L 64 2790 
C 371 2771 461 2675 461 2381 
L 461 768 
C 461 262 768 -64 1235 -64 
C 1696 -64 1946 262 2170 486 
L 2170 -45 
L 2195 -58 
C 2515 70 2746 141 3072 230 
L 3072 320 
z
" transform="scale(0.015625)"/>
       <path id="FreeSerif-72" d="M 1926 2317 
C 2080 2317 2176 2426 2176 2605 
C 2176 2816 2042 2944 1824 2944 
C 1555 2944 1370 2797 1056 2342 
L 1056 2931 
L 1024 2944 
C 685 2803 454 2720 77 2598 
L 77 2496 
C 166 2515 224 2522 301 2522 
C 461 2522 518 2419 518 2138 
L 518 538 
C 518 218 474 173 64 96 
L 64 0 
L 1600 0 
L 1600 96 
C 1165 115 1056 211 1056 576 
L 1056 2016 
C 1056 2221 1331 2541 1504 2541 
C 1606 2541 1754 2317 1926 2317 
z
" transform="scale(0.015625)"/>
       <path id="FreeSerif-79" d="M 909 -858 
C 800 -858 653 -742 410 -742 
C 262 -742 134 -870 134 -1024 
C 134 -1235 339 -1395 608 -1395 
C 1037 -1395 1344 -1037 1690 -115 
L 2675 2496 
C 2752 2701 2829 2765 2982 2784 
L 2982 2880 
L 2118 2880 
L 2118 2784 
C 2323 2784 2426 2726 2426 2624 
C 2426 2598 2419 2560 2400 2515 
L 1779 749 
L 1043 2368 
C 1005 2458 979 2541 979 2611 
C 979 2726 1075 2771 1350 2784 
L 1350 2880 
L 32 2880 
L 32 2790 
C 198 2765 307 2694 358 2586 
L 1203 768 
C 1370 442 1485 218 1485 122 
C 1485 -70 1171 -858 909 -858 
z
" transform="scale(0.015625)"/>
      </defs>
      <use xlink:href="#FreeSerif-41"/>
      <use xlink:href="#FreeSerif-63" x="69.099991"/>
      <use xlink:href="#FreeSerif-63" x="112.499985"/>
      <use xlink:href="#FreeSerif-75" x="154.899979"/>
      <use xlink:href="#FreeSerif-72" x="203.899963"/>
      <use xlink:href="#FreeSerif-61" x="238.399948"/>
      <use xlink:href="#FreeSerif-63" x="281.399933"/>
      <use xlink:href="#FreeSerif-79" x="322.299927"/>
     </g>
    </g>
   </g>
   <g id="patch_3">
    <path d="M 92.464545 244.065608 
L 136.46269 244.065608 
L 136.46269 63.568656 
L 92.464545 63.568656 
z
" clip-path="url(#p640591f1a8)" style="fill: #d9c6b0"/>
   </g>
   <g id="patch_4">
    <path d="M 190.2382 244.065608 
L 234.236345 244.065608 
L 234.236345 63.080061 
L 190.2382 63.080061 
z
" clip-path="url(#p640591f1a8)" style="fill: #d9c6b0"/>
   </g>
   <g id="patch_5">
    <path d="M 288.011855 244.065608 
L 332.01 244.065608 
L 332.01 104.9565 
L 288.011855 104.9565 
z
" clip-path="url(#p640591f1a8)" style="fill: #d9c6b0"/>
   </g>
   <g id="patch_6">
    <path d="M 385.78551 244.065608 
L 429.783655 244.065608 
L 429.783655 60.794733 
L 385.78551 60.794733 
z
" clip-path="url(#p640591f1a8)" style="fill: #d9c6b0"/>
   </g>
   <g id="patch_7">
    <path d="M 483.559165 244.065608 
L 527.55731 244.065608 
L 527.55731 61.279847 
L 483.559165 61.279847 
z
" clip-path="url(#p640591f1a8)" style="fill: #d9c6b0"/>
   </g>
   <g id="LineCollection_1">
    <path d="M 114.463618 66.140382 
L 114.463618 60.996929 
" clip-path="url(#p640591f1a8)" style="fill: none; stroke: #000000; stroke-width: 1.5"/>
   </g>
   <g id="LineCollection_2">
    <path d="M 212.237273 67.266362 
L 212.237273 58.893761 
" clip-path="url(#p640591f1a8)" style="fill: none; stroke: #000000; stroke-width: 1.5"/>
   </g>
   <g id="LineCollection_3">
    <path d="M 310.010928 110.562302 
L 310.010928 99.350698 
" clip-path="url(#p640591f1a8)" style="fill: none; stroke: #000000; stroke-width: 1.5"/>
   </g>
   <g id="LineCollection_4">
    <path d="M 407.784583 65.483114 
L 407.784583 56.106353 
" clip-path="url(#p640591f1a8)" style="fill: none; stroke: #000000; stroke-width: 1.5"/>
   </g>
   <g id="LineCollection_5">
    <path d="M 505.558237 64.148557 
L 505.558237 58.411136 
" clip-path="url(#p640591f1a8)" style="fill: none; stroke: #000000; stroke-width: 1.5"/>
   </g>
   <g id="patch_8">
    <path d="M 68.51 244.065608 
L 68.51 15.125625 
" style="fill: none; stroke: #000000; stroke-width: 0.8; stroke-linejoin: miter; stroke-linecap: square"/>
   </g>
   <g id="patch_9">
    <path d="M 595.51 244.065608 
L 595.51 15.125625 
" style="fill: none; stroke: #000000; stroke-width: 0.8; stroke-linejoin: miter; stroke-linecap: square"/>
   </g>
   <g id="patch_10">
    <path d="M 68.51 244.065608 
L 595.51 244.065608 
" style="fill: none; stroke: #000000; stroke-width: 0.8; stroke-linejoin: miter; stroke-linecap: square"/>
   </g>
   <g id="patch_11">
    <path d="M 68.51 15.125625 
L 595.51 15.125625 
" style="fill: none; stroke: #000000; stroke-width: 0.8; stroke-linejoin: miter; stroke-linecap: square"/>
   </g>
   <g id="text_10">
    <!-- 78.8% -->
    <g transform="translate(101.548774 61.568656)scale(0.1 -0.1)">
     <defs>
      <path id="FreeSerif-37" d="M 2874 4237 
L 506 4237 
L 128 3296 
L 237 3245 
C 512 3680 627 3763 979 3763 
L 2368 3763 
L 1101 -51 
L 1517 -51 
L 2874 4134 
L 2874 4237 
z
" transform="scale(0.015625)"/>
     </defs>
     <use xlink:href="#FreeSerif-37"/>
     <use xlink:href="#FreeSerif-38" x="49.999985"/>
     <use xlink:href="#FreeSerif-2e" x="99.999969"/>
     <use xlink:href="#FreeSerif-38" x="124.999954"/>
     <use xlink:href="#FreeSerif-25" x="174.999939"/>
    </g>
   </g>
   <g id="text_11">
    <!-- 79.1% -->
    <g transform="translate(199.322429 61.080061)scale(0.1 -0.1)">
     <defs>
      <path id="FreeSerif-39" d="M 378 -141 
C 2643 122 2938 1811 2938 2522 
C 2938 3578 2349 4326 1523 4326 
C 762 4326 192 3680 192 2816 
C 192 2035 653 1517 1344 1517 
C 1696 1517 1965 1619 2304 1882 
C 2042 838 1331 154 358 -13 
L 378 -141 
z
M 1574 1792 
C 1088 1792 781 2272 781 3034 
C 781 3507 922 4147 1472 4147 
C 2029 4147 2317 3597 2317 2522 
L 2317 2272 
C 2317 1888 1754 1792 1574 1792 
z
" transform="scale(0.015625)"/>
     </defs>
     <use xlink:href="#FreeSerif-37"/>
     <use xlink:href="#FreeSerif-39" x="49.999985"/>
     <use xlink:href="#FreeSerif-2e" x="99.999969"/>
     <use xlink:href="#FreeSerif-31" x="124.999954"/>
     <use xlink:href="#FreeSerif-25" x="174.999939"/>
    </g>
   </g>
   <g id="text_12">
    <!-- 60.8% -->
    <g transform="translate(297.096084 102.9565)scale(0.1 -0.1)">
     <use xlink:href="#FreeSerif-36"/>
     <use xlink:href="#FreeSerif-30" x="49.999985"/>
     <use xlink:href="#FreeSerif-2e" x="99.999969"/>
     <use xlink:href="#FreeSerif-38" x="124.999954"/>
     <use xlink:href="#FreeSerif-25" x="174.999939"/>
    </g>
   </g>
   <g id="text_13">
    <!-- 80.1% -->
    <g transform="translate(394.869739 58.794733)scale(0.1 -0.1)">
     <use xlink:href="#FreeSerif-38"/>
     <use xlink:href="#FreeSerif-30" x="49.999985"/>
     <use xlink:href="#FreeSerif-2e" x="99.999969"/>
     <use xlink:href="#FreeSerif-31" x="124.999954"/>
     <use xlink:href="#FreeSerif-25" x="174.999939"/>
    </g>
   </g>
   <g id="text_14">
    <!-- 79.8% -->
    <g transform="translate(492.643394 59.279847)scale(0.1 -0.1)">
     <use xlink:href="#FreeSerif-37"/>
     <use xlink:href="#FreeSerif-39" x="49.999985"/>
     <use xlink:href="#FreeSerif-2e" x="99.999969"/>
     <use xlink:href="#FreeSerif-38" x="124.999954"/>
     <use xlink:href="#FreeSerif-25" x="174.999939"/>
    </g>
   </g>
   <g id="legend_1">
    <g id="patch_12">
     <path d="M 517.569375 51.475625 
L 590.51 51.475625 
L 590.51 20.125625 
L 517.569375 20.125625 
z
" style="fill: #ffffff; opacity: 0.8; stroke: #cccccc; stroke-linejoin: miter"/>
    </g>
    <g id="patch_13">
     <path d="M 521.569375 31.125625 
L 541.569375 31.125625 
L 541.569375 24.125625 
L 521.569375 24.125625 
z
" style="fill: #d9c6b0"/>
    </g>
    <g id="text_15">
     <!-- Accuracy -->
     <g transform="translate(549.569375 31.125625)scale(0.1 -0.1)">
      <use xlink:href="#FreeSerif-41"/>
      <use xlink:href="#FreeSerif-63" x="69.099991"/>
      <use xlink:href="#FreeSerif-63" x="112.499985"/>
      <use xlink:href="#FreeSerif-75" x="154.899979"/>
      <use xlink:href="#FreeSerif-72" x="203.899963"/>
      <use xlink:href="#FreeSerif-61" x="238.399948"/>
      <use xlink:href="#FreeSerif-63" x="281.399933"/>
      <use xlink:href="#FreeSerif-79" x="322.299927"/>
     </g>
    </g>
    <g id="patch_14">
     <path d="M 521.569375 45.305313 
L 541.569375 45.305313 
L 541.569375 38.305313 
L 521.569375 38.305313 
z
" style="fill: #789f8a"/>
    </g>
    <g id="text_16">
     <!-- F1-Score -->
     <g transform="translate(549.569375 45.305313)scale(0.1 -0.1)">
      <defs>
       <path id="FreeSerif-46" d="M 3085 1478 
L 3085 2963 
L 2938 2963 
C 2861 2451 2746 2355 2234 2355 
L 1306 2355 
L 1306 3776 
C 1306 3955 1338 3994 1510 3994 
L 2381 3994 
C 3104 3994 3245 3898 3354 3322 
L 3514 3322 
L 3494 4237 
L 96 4237 
L 96 4115 
C 570 4077 653 3987 653 3539 
L 653 768 
C 653 237 582 154 96 122 
L 96 0 
L 1888 0 
L 1888 122 
C 1395 147 1306 243 1306 762 
L 1306 2093 
L 2234 2093 
C 2752 2093 2861 1997 2938 1478 
L 3085 1478 
z
" transform="scale(0.015625)"/>
       <path id="FreeSerif-2d" d="M 250 1645 
L 250 1242 
L 1824 1242 
L 1824 1645 
L 250 1645 
z
" transform="scale(0.015625)"/>
       <path id="FreeSerif-53" d="M 2419 864 
C 2419 435 2099 141 1632 141 
C 1062 141 659 493 339 1274 
L 192 1274 
L 384 -83 
L 525 -83 
C 531 38 608 128 704 128 
C 941 128 1203 -90 1760 -90 
C 2496 -90 3066 416 3066 1075 
C 3066 1600 2714 2016 1869 2470 
C 1197 2842 928 3123 928 3469 
C 928 3821 1197 4064 1594 4064 
C 2061 4064 2547 3757 2765 2963 
L 2925 2963 
L 2784 4326 
L 2650 4326 
C 2624 4179 2554 4109 2445 4109 
C 2246 4109 1958 4326 1485 4326 
C 915 4326 378 3910 378 3232 
C 378 1920 2419 1958 2419 864 
z
" transform="scale(0.015625)"/>
       <path id="FreeSerif-65" d="M 621 1773 
L 2592 1773 
C 2496 2547 2157 2944 1498 2944 
C 723 2944 160 2323 160 1370 
C 160 486 621 -64 1357 -64 
C 1965 -64 2445 314 2714 1005 
L 2611 1050 
C 2304 563 2029 378 1619 378 
C 1203 378 659 634 621 1773 
z
M 634 1978 
C 704 2477 922 2714 1312 2714 
C 1702 2714 1856 2534 1939 1978 
L 634 1978 
z
" transform="scale(0.015625)"/>
      </defs>
      <use xlink:href="#FreeSerif-46"/>
      <use xlink:href="#FreeSerif-31" x="56.399994"/>
      <use xlink:href="#FreeSerif-2d" x="106.399979"/>
      <use xlink:href="#FreeSerif-53" x="139.699966"/>
      <use xlink:href="#FreeSerif-63" x="192.59996"/>
      <use xlink:href="#FreeSerif-6f" x="235.999954"/>
      <use xlink:href="#FreeSerif-72" x="284.099945"/>
      <use xlink:href="#FreeSerif-65" x="317.59993"/>
     </g>
    </g>
   </g>
  </g>
  <g id="axes_2">
   <g id="matplotlib.axis_3">
    <g id="ytick_7">
     <g id="line2d_18">
      <defs>
       <path id="m5a0d3bb4ed" d="M 0 0 
L 3.5 0 
" style="stroke: #000000; stroke-width: 0.8"/>
      </defs>
      <g>
       <use xlink:href="#m5a0d3bb4ed" x="595.51" y="244.065608" style="stroke: #000000; stroke-width: 0.8"/>
      </g>
     </g>
     <g id="text_17">
      <!-- 0.00 -->
      <g transform="translate(602.51 248.163421)scale(0.12 -0.12)">
       <use xlink:href="#FreeSerif-30"/>
       <use xlink:href="#FreeSerif-2e" x="49.999985"/>
       <use xlink:href="#FreeSerif-30" x="74.999969"/>
       <use xlink:href="#FreeSerif-30" x="124.999954"/>
      </g>
     </g>
    </g>
    <g id="ytick_8">
     <g id="line2d_19">
      <g>
       <use xlink:href="#m5a0d3bb4ed" x="595.51" y="198.277612" style="stroke: #000000; stroke-width: 0.8"/>
      </g>
     </g>
     <g id="text_18">
      <!-- 0.20 -->
      <g transform="translate(602.51 202.375424)scale(0.12 -0.12)">
       <use xlink:href="#FreeSerif-30"/>
       <use xlink:href="#FreeSerif-2e" x="49.999985"/>
       <use xlink:href="#FreeSerif-32" x="74.999969"/>
       <use xlink:href="#FreeSerif-30" x="124.999954"/>
      </g>
     </g>
    </g>
    <g id="ytick_9">
     <g id="line2d_20">
      <g>
       <use xlink:href="#m5a0d3bb4ed" x="595.51" y="152.489615" style="stroke: #000000; stroke-width: 0.8"/>
      </g>
     </g>
     <g id="text_19">
      <!-- 0.40 -->
      <g transform="translate(602.51 156.587428)scale(0.12 -0.12)">
       <use xlink:href="#FreeSerif-30"/>
       <use xlink:href="#FreeSerif-2e" x="49.999985"/>
       <use xlink:href="#FreeSerif-34" x="74.999969"/>
       <use xlink:href="#FreeSerif-30" x="124.999954"/>
      </g>
     </g>
    </g>
    <g id="ytick_10">
     <g id="line2d_21">
      <g>
       <use xlink:href="#m5a0d3bb4ed" x="595.51" y="106.701618" style="stroke: #000000; stroke-width: 0.8"/>
      </g>
     </g>
     <g id="text_20">
      <!-- 0.60 -->
      <g transform="translate(602.51 110.799431)scale(0.12 -0.12)">
       <use xlink:href="#FreeSerif-30"/>
       <use xlink:href="#FreeSerif-2e" x="49.999985"/>
       <use xlink:href="#FreeSerif-36" x="74.999969"/>
       <use xlink:href="#FreeSerif-30" x="124.999954"/>
      </g>
     </g>
    </g>
    <g id="ytick_11">
     <g id="line2d_22">
      <g>
       <use xlink:href="#m5a0d3bb4ed" x="595.51" y="60.913622" style="stroke: #000000; stroke-width: 0.8"/>
      </g>
     </g>
     <g id="text_21">
      <!-- 0.80 -->
      <g transform="translate(602.51 65.011434)scale(0.12 -0.12)">
       <use xlink:href="#FreeSerif-30"/>
       <use xlink:href="#FreeSerif-2e" x="49.999985"/>
       <use xlink:href="#FreeSerif-38" x="74.999969"/>
       <use xlink:href="#FreeSerif-30" x="124.999954"/>
      </g>
     </g>
    </g>
    <g id="ytick_12">
     <g id="line2d_23">
      <g>
       <use xlink:href="#m5a0d3bb4ed" x="595.51" y="15.125625" style="stroke: #000000; stroke-width: 0.8"/>
      </g>
     </g>
     <g id="text_22">
      <!-- 1.00 -->
      <g transform="translate(602.51 19.223437)scale(0.12 -0.12)">
       <use xlink:href="#FreeSerif-31"/>
       <use xlink:href="#FreeSerif-2e" x="49.999985"/>
       <use xlink:href="#FreeSerif-30" x="74.999969"/>
       <use xlink:href="#FreeSerif-30" x="124.999954"/>
      </g>
     </g>
    </g>
    <g id="text_23">
     <!-- F1-Score -->
     <g transform="translate(634.339687 147.696398)rotate(-90)scale(0.1 -0.1)">
      <use xlink:href="#FreeSerif-46"/>
      <use xlink:href="#FreeSerif-31" x="56.399994"/>
      <use xlink:href="#FreeSerif-2d" x="106.399979"/>
      <use xlink:href="#FreeSerif-53" x="139.699966"/>
      <use xlink:href="#FreeSerif-63" x="192.59996"/>
      <use xlink:href="#FreeSerif-6f" x="235.999954"/>
      <use xlink:href="#FreeSerif-72" x="284.099945"/>
      <use xlink:href="#FreeSerif-65" x="317.59993"/>
     </g>
    </g>
   </g>
   <g id="patch_15">
    <path d="M 136.46269 244.065608 
L 180.460835 244.065608 
L 180.460835 84.106527 
L 136.46269 84.106527 
z
" clip-path="url(#p640591f1a8)" style="fill: #789f8a"/>
   </g>
   <g id="patch_16">
    <path d="M 234.236345 244.065608 
L 278.23449 244.065608 
L 278.23449 85.043591 
L 234.236345 85.043591 
z
" clip-path="url(#p640591f1a8)" style="fill: #789f8a"/>
   </g>
   <g id="patch_17">
    <path d="M 332.01 244.065608 
L 376.008145 244.065608 
L 376.008145 108.883697 
L 332.01 108.883697 
z
" clip-path="url(#p640591f1a8)" style="fill: #789f8a"/>
   </g>
   <g id="patch_18">
    <path d="M 429.783655 244.065608 
L 473.7818 244.065608 
L 473.7818 82.771513 
L 429.783655 82.771513 
z
" clip-path="url(#p640591f1a8)" style="fill: #789f8a"/>
   </g>
   <g id="patch_19">
    <path d="M 527.55731 244.065608 
L 571.555455 244.065608 
L 571.555455 84.318464 
L 527.55731 84.318464 
z
" clip-path="url(#p640591f1a8)" style="fill: #789f8a"/>
   </g>
   <g id="LineCollection_6">
    <path d="M 158.461763 87.963503 
L 158.461763 80.24955 
" clip-path="url(#p640591f1a8)" style="fill: none; stroke: #000000; stroke-width: 1.5"/>
   </g>
   <g id="LineCollection_7">
    <path d="M 256.235417 90.363017 
L 256.235417 79.724165 
" clip-path="url(#p640591f1a8)" style="fill: none; stroke: #000000; stroke-width: 1.5"/>
   </g>
   <g id="LineCollection_8">
    <path d="M 354.009072 114.031671 
L 354.009072 103.735723 
" clip-path="url(#p640591f1a8)" style="fill: none; stroke: #000000; stroke-width: 1.5"/>
   </g>
   <g id="LineCollection_9">
    <path d="M 451.782727 87.88235 
L 451.782727 77.660675 
" clip-path="url(#p640591f1a8)" style="fill: none; stroke: #000000; stroke-width: 1.5"/>
   </g>
   <g id="LineCollection_10">
    <path d="M 549.556382 89.056319 
L 549.556382 79.58061 
" clip-path="url(#p640591f1a8)" style="fill: none; stroke: #000000; stroke-width: 1.5"/>
   </g>
   <g id="patch_20">
    <path d="M 68.51 244.065608 
L 68.51 15.125625 
" style="fill: none; stroke: #000000; stroke-width: 0.8; stroke-linejoin: miter; stroke-linecap: square"/>
   </g>
   <g id="patch_21">
    <path d="M 595.51 244.065608 
L 595.51 15.125625 
" style="fill: none; stroke: #000000; stroke-width: 0.8; stroke-linejoin: miter; stroke-linecap: square"/>
   </g>
   <g id="patch_22">
    <path d="M 68.51 244.065608 
L 595.51 244.065608 
" style="fill: none; stroke: #000000; stroke-width: 0.8; stroke-linejoin: miter; stroke-linecap: square"/>
   </g>
   <g id="patch_23">
    <path d="M 68.51 15.125625 
L 595.51 15.125625 
" style="fill: none; stroke: #000000; stroke-width: 0.8; stroke-linejoin: miter; stroke-linecap: square"/>
   </g>
   <g id="text_24">
    <!-- 0.70 -->
    <g transform="translate(149.711763 82.106527)scale(0.1 -0.1)">
     <use xlink:href="#FreeSerif-30"/>
     <use xlink:href="#FreeSerif-2e" x="49.999985"/>
     <use xlink:href="#FreeSerif-37" x="74.999969"/>
     <use xlink:href="#FreeSerif-30" x="124.999954"/>
    </g>
   </g>
   <g id="text_25">
    <!-- 0.69 -->
    <g transform="translate(247.485417 83.043591)scale(0.1 -0.1)">
     <use xlink:href="#FreeSerif-30"/>
     <use xlink:href="#FreeSerif-2e" x="49.999985"/>
     <use xlink:href="#FreeSerif-36" x="74.999969"/>
     <use xlink:href="#FreeSerif-39" x="124.999954"/>
    </g>
   </g>
   <g id="text_26">
    <!-- 0.59 -->
    <g transform="translate(345.259072 106.883697)scale(0.1 -0.1)">
     <defs>
      <path id="FreeSerif-35" d="M 2285 1242 
C 2285 627 1894 147 1395 147 
C 1056 147 838 544 480 544 
C 294 544 205 467 205 307 
C 205 64 506 -90 986 -90 
C 1664 -90 2733 237 2733 1549 
C 2733 2547 2080 2976 890 3187 
L 1158 3731 
L 2413 3731 
C 2515 3731 2541 3744 2560 3789 
L 2803 4358 
L 2746 4403 
C 2650 4269 2586 4237 2451 4237 
L 1114 4237 
L 416 2720 
C 410 2707 410 2701 410 2688 
C 410 2656 435 2637 486 2637 
C 883 2637 2285 2432 2285 1242 
z
" transform="scale(0.015625)"/>
     </defs>
     <use xlink:href="#FreeSerif-30"/>
     <use xlink:href="#FreeSerif-2e" x="49.999985"/>
     <use xlink:href="#FreeSerif-35" x="74.999969"/>
     <use xlink:href="#FreeSerif-39" x="124.999954"/>
    </g>
   </g>
   <g id="text_27">
    <!-- 0.70 -->
    <g transform="translate(443.032727 80.771513)scale(0.1 -0.1)">
     <use xlink:href="#FreeSerif-30"/>
     <use xlink:href="#FreeSerif-2e" x="49.999985"/>
     <use xlink:href="#FreeSerif-37" x="74.999969"/>
     <use xlink:href="#FreeSerif-30" x="124.999954"/>
    </g>
   </g>
   <g id="text_28">
    <!-- 0.70 -->
    <g transform="translate(540.806382 82.318464)scale(0.1 -0.1)">
     <use xlink:href="#FreeSerif-30"/>
     <use xlink:href="#FreeSerif-2e" x="49.999985"/>
     <use xlink:href="#FreeSerif-37" x="74.999969"/>
     <use xlink:href="#FreeSerif-30" x="124.999954"/>
    </g>
   </g>
  </g>
 </g>
 <defs>
  <clipPath id="p640591f1a8">
   <rect x="68.51" y="15.125625" width="527" height="228.939983"/>
  </clipPath>
 </defs>
</svg>
