<?xml version="1.0" encoding="utf-8" standalone="no"?>
<!DOCTYPE svg PUBLIC "-//W3C//DTD SVG 1.1//EN"
  "http://www.w3.org/Graphics/SVG/1.1/DTD/svg11.dtd">
<svg xmlns:xlink="http://www.w3.org/1999/xlink" width="648pt" height="288pt" viewBox="0 0 648 288" xmlns="http://www.w3.org/2000/svg" version="1.1">
 <metadata>
  <rdf:RDF xmlns:dc="http://purl.org/dc/elements/1.1/" xmlns:cc="http://creativecommons.org/ns#" xmlns:rdf="http://www.w3.org/1999/02/22-rdf-syntax-ns#">
   <cc:Work>
    <dc:type rdf:resource="http://purl.org/dc/dcmitype/StillImage"/>
    <dc:date>2022-03-13T05:47:22.854055</dc:date>
    <dc:format>image/svg+xml</dc:format>
    <dc:creator>
     <cc:Agent>
      <dc:title>Matplotlib v3.5.0, https://matplotlib.org/</dc:title>
     </cc:Agent>
    </dc:creator>
   </cc:Work>
  </rdf:RDF>
 </metadata>
 <defs>
  <style type="text/css">*{stroke-linejoin: round; stroke-linecap: butt}</style>
 </defs>
 <g id="figure_1">
  <g id="patch_1">
   <path d="M 0 288 
L 648 288 
L 648 0 
L 0 0 
z
" style="fill: #ffffff"/>
  </g>
  <g id="axes_1">
   <g id="patch_2">
    <path d="M 68.51 239.571464 
L 595.51 239.571464 
L 595.51 15.125625 
L 68.51 15.125625 
z
" style="fill: #ffffff"/>
   </g>
   <g id="matplotlib.axis_1">
    <g id="xtick_1">
     <g id="line2d_1">
      <defs>
       <path id="m9867f67899" d="M 0 0 
L 0 3.5 
" style="stroke: #000000; stroke-width: 0.8"/>
      </defs>
      <g>
       <use xlink:href="#m9867f67899" x="136.46269" y="239.571464" style="stroke: #000000; stroke-width: 0.8"/>
      </g>
     </g>
    </g>
    <g id="xtick_2">
     <g id="line2d_2">
      <g>
       <use xlink:href="#m9867f67899" x="234.236345" y="239.571464" style="stroke: #000000; stroke-width: 0.8"/>
      </g>
     </g>
     <g id="text_1">
      <!-- MLP -->
      <g transform="translate(223.533856 262.759634)rotate(-20)scale(0.12 -0.12)">
       <defs>
        <path id="FreeSerif-4d" d="M 4333 3667 
L 2694 0 
L 2605 0 
L 998 3520 
L 998 941 
Q 998 454 1113 297 
Q 1229 141 1600 122 
L 1600 0 
L 96 0 
L 96 122 
Q 493 147 605 297 
Q 717 448 717 941 
L 717 3539 
Q 717 3891 611 3990 
Q 506 4090 109 4115 
L 109 4237 
L 1376 4237 
L 2854 1005 
L 4269 4237 
L 5542 4237 
L 5542 4115 
Q 5184 4083 5085 3980 
Q 4986 3878 4986 3539 
L 4986 698 
Q 4986 358 5088 252 
Q 5190 147 5542 122 
L 5542 0 
L 3750 0 
L 3750 122 
Q 4128 147 4230 259 
Q 4333 371 4333 768 
L 4333 3667 
z
" transform="scale(0.015625)"/>
        <path id="FreeSerif-4c" d="M 2285 250 
Q 2451 250 2595 269 
Q 2739 288 2848 310 
Q 2957 333 3059 384 
Q 3162 435 3226 467 
Q 3290 499 3357 572 
Q 3424 646 3459 678 
Q 3494 710 3539 796 
Q 3584 883 3597 908 
Q 3610 934 3648 1020 
Q 3686 1107 3686 1114 
L 3846 1114 
L 3539 0 
L 96 0 
L 96 122 
Q 448 147 550 252 
Q 653 358 653 698 
L 653 3539 
Q 653 3878 550 3984 
Q 448 4090 96 4115 
L 96 4237 
L 1901 4237 
L 1901 4115 
Q 1523 4090 1414 3984 
Q 1306 3878 1306 3539 
L 1306 512 
Q 1306 346 1405 298 
Q 1504 250 1856 250 
L 2285 250 
z
" transform="scale(0.015625)"/>
        <path id="FreeSerif-50" d="M 3462 3078 
Q 3462 2912 3424 2758 
Q 3386 2605 3274 2432 
Q 3162 2259 2976 2134 
Q 2790 2010 2470 1926 
Q 2150 1843 1728 1843 
Q 1536 1843 1286 1862 
L 1286 698 
Q 1286 346 1398 240 
Q 1510 134 1888 122 
L 1888 0 
L 96 0 
L 96 122 
Q 461 154 547 259 
Q 634 365 634 768 
L 634 3539 
Q 634 3885 544 3981 
Q 454 4077 96 4115 
L 96 4237 
L 1786 4237 
Q 2074 4237 2342 4182 
Q 2611 4128 2876 4006 
Q 3142 3885 3302 3648 
Q 3462 3411 3462 3078 
z
M 1286 3782 
L 1286 2118 
Q 1510 2099 1651 2099 
Q 2765 2099 2765 3040 
Q 2765 3533 2457 3766 
Q 2150 4000 1504 4000 
Q 1376 4000 1331 3955 
Q 1286 3910 1286 3782 
z
" transform="scale(0.015625)"/>
       </defs>
       <use xlink:href="#FreeSerif-4d"/>
       <use xlink:href="#FreeSerif-4c" x="88.099991"/>
       <use xlink:href="#FreeSerif-50" x="149.199982"/>
      </g>
     </g>
    </g>
    <g id="xtick_3">
     <g id="line2d_3">
      <g>
       <use xlink:href="#m9867f67899" x="332.01" y="239.571464" style="stroke: #000000; stroke-width: 0.8"/>
      </g>
     </g>
    </g>
    <g id="xtick_4">
     <g id="line2d_4">
      <g>
       <use xlink:href="#m9867f67899" x="429.783655" y="239.571464" style="stroke: #000000; stroke-width: 0.8"/>
      </g>
     </g>
     <g id="text_2">
      <!-- Naive Bayes -->
      <g transform="translate(403.488861 274.108504)rotate(-20)scale(0.12 -0.12)">
       <defs>
        <path id="FreeSerif-4e" d="M 4544 4115 
Q 4365 4096 4278 4073 
Q 4192 4051 4099 3974 
Q 4006 3898 3971 3734 
Q 3936 3571 3936 3296 
L 3936 -70 
L 3827 -70 
L 998 3450 
L 998 941 
Q 998 454 1113 297 
Q 1229 141 1600 122 
L 1600 0 
L 96 0 
L 96 122 
Q 493 147 605 297 
Q 717 448 717 941 
L 717 3763 
Q 525 3987 413 4051 
Q 301 4115 96 4115 
L 96 4237 
L 1190 4237 
L 3654 1139 
L 3654 3296 
Q 3654 3782 3536 3932 
Q 3418 4083 3040 4115 
L 3040 4237 
L 4544 4237 
L 4544 4115 
z
" transform="scale(0.015625)"/>
        <path id="FreeSerif-61" d="M 160 621 
Q 160 736 185 835 
Q 211 934 275 1020 
Q 339 1107 396 1177 
Q 454 1248 569 1321 
Q 685 1395 761 1443 
Q 838 1491 995 1558 
Q 1152 1626 1235 1661 
Q 1318 1696 1497 1766 
Q 1677 1837 1760 1869 
L 1760 2259 
Q 1760 2790 1274 2790 
Q 1082 2790 947 2697 
Q 813 2605 813 2477 
Q 813 2426 829 2336 
Q 845 2246 845 2221 
Q 845 2112 758 2032 
Q 672 1952 557 1952 
Q 448 1952 365 2035 
Q 282 2118 282 2227 
Q 282 2528 592 2736 
Q 902 2944 1357 2944 
Q 1882 2944 2080 2691 
Q 2278 2438 2278 1920 
L 2278 672 
Q 2278 461 2320 381 
Q 2362 301 2470 301 
Q 2605 301 2752 422 
L 2752 256 
Q 2586 70 2461 3 
Q 2336 -64 2176 -64 
Q 1978 -64 1885 45 
Q 1792 154 1766 403 
Q 1216 -64 832 -64 
Q 538 -64 349 128 
Q 160 320 160 621 
z
M 1760 787 
L 1760 1715 
Q 1184 1504 953 1305 
Q 723 1107 723 826 
Q 723 563 851 435 
Q 979 307 1126 307 
Q 1344 307 1594 454 
Q 1696 512 1728 576 
Q 1760 640 1760 787 
z
" transform="scale(0.015625)"/>
        <path id="FreeSerif-69" d="M 397 2515 
Q 256 2515 128 2496 
L 128 2592 
Q 576 2720 1120 2944 
L 1146 2925 
L 1146 653 
Q 1146 307 1226 214 
Q 1306 122 1619 96 
L 1619 0 
L 102 0 
L 102 96 
Q 435 115 521 211 
Q 608 307 608 653 
L 608 2138 
Q 608 2349 560 2432 
Q 512 2515 397 2515 
z
M 819 4371 
Q 960 4371 1056 4275 
Q 1152 4179 1152 4045 
Q 1152 3904 1056 3811 
Q 960 3718 819 3718 
Q 685 3718 592 3814 
Q 499 3910 499 4044 
Q 499 4179 595 4275 
Q 691 4371 819 4371 
z
" transform="scale(0.015625)"/>
        <path id="FreeSerif-76" d="M 2963 2880 
L 2963 2784 
Q 2816 2771 2745 2688 
Q 2675 2605 2547 2285 
L 1728 230 
Q 1600 -90 1549 -90 
Q 1478 -90 1382 211 
L 614 2048 
Q 410 2541 314 2656 
Q 218 2771 32 2784 
L 32 2880 
L 1286 2880 
L 1286 2784 
Q 1120 2771 1056 2732 
Q 992 2694 992 2605 
Q 992 2502 1050 2368 
L 1702 730 
L 2336 2387 
Q 2374 2483 2374 2579 
Q 2374 2758 2074 2784 
L 2074 2880 
L 2963 2880 
z
" transform="scale(0.015625)"/>
        <path id="FreeSerif-65" d="M 621 1773 
Q 634 1370 730 1078 
Q 826 787 979 643 
Q 1133 499 1289 438 
Q 1446 378 1619 378 
Q 1926 378 2153 531 
Q 2381 685 2611 1050 
L 2714 1005 
Q 2515 486 2163 211 
Q 1811 -64 1357 -64 
Q 806 -64 483 323 
Q 160 710 160 1370 
Q 160 2080 534 2512 
Q 909 2944 1498 2944 
Q 1984 2944 2253 2653 
Q 2522 2362 2592 1773 
L 621 1773 
z
M 634 1978 
L 1939 1978 
Q 1875 2394 1740 2554 
Q 1606 2714 1312 2714 
Q 736 2714 634 1978 
z
" transform="scale(0.015625)"/>
        <path id="FreeSerif-20" transform="scale(0.015625)"/>
        <path id="FreeSerif-42" d="M 3782 1152 
Q 3782 960 3712 774 
Q 3642 589 3478 406 
Q 3315 224 2995 112 
Q 2675 0 2234 0 
L 96 0 
L 96 122 
Q 493 134 601 236 
Q 710 339 710 698 
L 710 3539 
Q 710 3891 604 3990 
Q 499 4090 96 4115 
L 96 4237 
L 1888 4237 
Q 3565 4237 3565 3149 
Q 3565 2938 3488 2774 
Q 3411 2611 3331 2524 
Q 3251 2438 3084 2361 
Q 2918 2285 2873 2275 
Q 2829 2266 2688 2227 
Q 2835 2189 2908 2169 
Q 2982 2150 3177 2060 
Q 3373 1971 3481 1868 
Q 3590 1766 3686 1577 
Q 3782 1389 3782 1152 
z
M 1766 237 
Q 2054 237 2265 275 
Q 2477 314 2662 406 
Q 2848 499 2947 684 
Q 3046 870 3046 1146 
Q 3046 1408 2947 1590 
Q 2848 1773 2707 1869 
Q 2566 1965 2316 2016 
Q 2067 2067 1875 2076 
Q 1683 2086 1363 2086 
L 1363 499 
Q 1363 346 1446 291 
Q 1530 237 1766 237 
z
M 1363 2342 
L 1971 2342 
Q 2419 2342 2665 2544 
Q 2912 2746 2912 3123 
Q 2912 3552 2624 3776 
Q 2336 4000 1786 4000 
L 1504 4000 
Q 1363 4000 1363 3808 
L 1363 2342 
z
" transform="scale(0.015625)"/>
        <path id="FreeSerif-79" d="M 909 -858 
Q 1088 -858 1286 -461 
Q 1485 -64 1485 122 
Q 1485 205 1203 768 
L 358 2586 
Q 282 2752 32 2790 
L 32 2880 
L 1350 2880 
L 1350 2784 
Q 1146 2778 1062 2739 
Q 979 2701 979 2611 
Q 979 2515 1043 2368 
L 1779 749 
L 2400 2515 
Q 2426 2573 2426 2624 
Q 2426 2784 2118 2784 
L 2118 2880 
L 2982 2880 
L 2982 2784 
Q 2867 2771 2800 2710 
Q 2733 2650 2675 2496 
L 1690 -115 
Q 1434 -806 1181 -1100 
Q 928 -1395 608 -1395 
Q 403 -1395 268 -1289 
Q 134 -1184 134 -1024 
Q 134 -909 217 -825 
Q 301 -742 410 -742 
Q 550 -742 710 -800 
Q 870 -858 909 -858 
z
" transform="scale(0.015625)"/>
        <path id="FreeSerif-73" d="M 1715 2816 
Q 1722 2816 1818 2880 
L 1888 2880 
L 1914 2010 
L 1818 2010 
Q 1709 2438 1549 2617 
Q 1389 2797 1114 2797 
Q 896 2797 758 2675 
Q 621 2554 621 2362 
Q 621 2086 896 1926 
L 1587 1517 
Q 1875 1344 2000 1168 
Q 2125 992 2125 755 
Q 2125 422 1859 179 
Q 1594 -64 1222 -64 
Q 1062 -64 793 -6 
Q 525 51 461 51 
Q 365 51 314 -26 
L 230 -26 
L 230 973 
L 333 973 
Q 435 525 576 339 
Q 781 77 1146 77 
Q 1389 77 1533 201 
Q 1677 326 1677 538 
Q 1677 826 1344 1018 
L 973 1229 
Q 563 1459 393 1670 
Q 224 1882 224 2150 
Q 224 2496 470 2717 
Q 717 2938 1094 2938 
Q 1306 2938 1491 2877 
Q 1677 2816 1715 2816 
z
" transform="scale(0.015625)"/>
       </defs>
       <use xlink:href="#FreeSerif-4e"/>
       <use xlink:href="#FreeSerif-61" x="72.499985"/>
       <use xlink:href="#FreeSerif-69" x="115.499969"/>
       <use xlink:href="#FreeSerif-76" x="139.799957"/>
       <use xlink:href="#FreeSerif-65" x="184.599945"/>
       <use xlink:href="#FreeSerif-20" x="228.999939"/>
       <use xlink:href="#FreeSerif-42" x="253.999924"/>
       <use xlink:href="#FreeSerif-61" x="317.099915"/>
       <use xlink:href="#FreeSerif-79" x="358.099899"/>
       <use xlink:href="#FreeSerif-65" x="403.19989"/>
       <use xlink:href="#FreeSerif-73" x="446.599884"/>
      </g>
     </g>
    </g>
    <g id="xtick_5">
     <g id="line2d_5">
      <g>
       <use xlink:href="#m9867f67899" x="527.55731" y="239.571464" style="stroke: #000000; stroke-width: 0.8"/>
      </g>
     </g>
    </g>
   </g>
   <g id="matplotlib.axis_2">
    <g id="ytick_1">
     <g id="line2d_6">
      <path d="M 68.51 239.571464 
L 595.51 239.571464 
" clip-path="url(#pb3d70619ab)" style="fill: none; stroke-dasharray: 0.8,1.32; stroke-dashoffset: 0; stroke: #b0b0b0; stroke-opacity: 0.8; stroke-width: 0.8"/>
     </g>
     <g id="line2d_7">
      <defs>
       <path id="m80109b5966" d="M 0 0 
L -3.5 0 
" style="stroke: #000000; stroke-width: 0.8"/>
      </defs>
      <g>
       <use xlink:href="#m80109b5966" x="68.51" y="239.571464" style="stroke: #000000; stroke-width: 0.8"/>
      </g>
     </g>
     <g id="text_3">
      <!-- 0.0% -->
      <g transform="translate(36.514375 243.669276)scale(0.12 -0.12)">
       <defs>
        <path id="FreeSerif-30" d="M 2649 524 
Q 2253 -90 1600 -90 
Q 947 -90 550 537 
Q 154 1165 154 2150 
Q 154 3078 550 3702 
Q 947 4326 1626 4326 
Q 2253 4326 2649 3712 
Q 3046 3098 3046 2112 
Q 3046 1139 2649 524 
z
M 1606 4160 
Q 768 4160 768 2093 
Q 768 77 1600 77 
Q 2432 77 2432 2099 
Q 2432 3104 2221 3632 
Q 2010 4160 1606 4160 
z
" transform="scale(0.015625)"/>
        <path id="FreeSerif-2e" d="M 800 640 
Q 947 640 1052 531 
Q 1158 422 1158 275 
Q 1158 134 1049 32 
Q 941 -70 794 -70 
Q 653 -70 550 32 
Q 448 134 448 275 
Q 448 422 553 531 
Q 659 640 800 640 
z
" transform="scale(0.015625)"/>
        <path id="FreeSerif-25" d="M 4282 2374 
Q 4595 2374 4768 2195 
Q 4941 2016 4941 1690 
Q 4941 1318 4793 953 
Q 4646 589 4390 326 
Q 4064 0 3642 0 
Q 3296 0 3085 227 
Q 2874 454 2874 826 
Q 2874 1427 3306 1900 
Q 3738 2374 4282 2374 
z
M 3750 192 
Q 4026 192 4269 435 
Q 4512 678 4643 1014 
Q 4774 1350 4774 1658 
Q 4774 1869 4643 2019 
Q 4512 2170 4326 2170 
Q 4032 2170 3795 1837 
Q 3558 1504 3459 1155 
Q 3360 806 3360 602 
Q 3360 422 3469 307 
Q 3578 192 3750 192 
z
M 1805 4237 
Q 2003 4237 2124 4150 
Q 2246 4064 2396 3977 
Q 2547 3891 2810 3891 
Q 3110 3891 3331 3987 
Q 3552 4083 3808 4326 
L 4058 4326 
L 1594 -83 
L 1286 -83 
L 3533 3923 
Q 3200 3731 2829 3731 
Q 2579 3731 2413 3795 
Q 2458 3635 2458 3514 
Q 2458 2918 2077 2384 
Q 1696 1850 1146 1850 
Q 832 1850 611 2090 
Q 390 2330 390 2662 
Q 390 3270 822 3753 
Q 1254 4237 1805 4237 
z
M 1805 4045 
Q 1498 4045 1187 3485 
Q 877 2925 877 2458 
Q 877 2285 982 2176 
Q 1088 2067 1254 2067 
Q 1645 2067 1971 2524 
Q 2298 2982 2298 3526 
Q 2298 3648 2240 3840 
Q 2112 3872 2025 3913 
Q 1939 3955 1910 3980 
Q 1882 4006 1856 4025 
Q 1830 4045 1805 4045 
z
" transform="scale(0.015625)"/>
       </defs>
       <use xlink:href="#FreeSerif-30"/>
       <use xlink:href="#FreeSerif-2e" x="49.999985"/>
       <use xlink:href="#FreeSerif-30" x="74.999969"/>
       <use xlink:href="#FreeSerif-25" x="124.999954"/>
      </g>
     </g>
    </g>
    <g id="ytick_2">
     <g id="line2d_8">
      <path d="M 68.51 194.682296 
L 595.51 194.682296 
" clip-path="url(#pb3d70619ab)" style="fill: none; stroke-dasharray: 0.8,1.32; stroke-dashoffset: 0; stroke: #b0b0b0; stroke-opacity: 0.8; stroke-width: 0.8"/>
     </g>
     <g id="line2d_9">
      <g>
       <use xlink:href="#m80109b5966" x="68.51" y="194.682296" style="stroke: #000000; stroke-width: 0.8"/>
      </g>
     </g>
     <g id="text_4">
      <!-- 20.0% -->
      <g transform="translate(30.514375 198.780109)scale(0.12 -0.12)">
       <defs>
        <path id="FreeSerif-32" d="M 198 3053 
Q 230 3200 262 3309 
Q 294 3418 400 3626 
Q 506 3834 637 3971 
Q 768 4109 1001 4217 
Q 1235 4326 1530 4326 
Q 2029 4326 2371 4000 
Q 2714 3674 2714 3194 
Q 2714 2470 1894 1613 
L 819 486 
L 2349 486 
Q 2566 486 2672 560 
Q 2778 634 2957 909 
L 3040 877 
L 2688 0 
L 192 0 
L 192 77 
L 1331 1286 
Q 2163 2170 2163 2950 
Q 2163 3354 1913 3603 
Q 1664 3853 1261 3853 
Q 928 3853 726 3670 
Q 525 3488 333 3021 
L 198 3053 
z
" transform="scale(0.015625)"/>
       </defs>
       <use xlink:href="#FreeSerif-32"/>
       <use xlink:href="#FreeSerif-30" x="49.999985"/>
       <use xlink:href="#FreeSerif-2e" x="99.999969"/>
       <use xlink:href="#FreeSerif-30" x="124.999954"/>
       <use xlink:href="#FreeSerif-25" x="174.999939"/>
      </g>
     </g>
    </g>
    <g id="ytick_3">
     <g id="line2d_10">
      <path d="M 68.51 149.793128 
L 595.51 149.793128 
" clip-path="url(#pb3d70619ab)" style="fill: none; stroke-dasharray: 0.8,1.32; stroke-dashoffset: 0; stroke: #b0b0b0; stroke-opacity: 0.8; stroke-width: 0.8"/>
     </g>
     <g id="line2d_11">
      <g>
       <use xlink:href="#m80109b5966" x="68.51" y="149.793128" style="stroke: #000000; stroke-width: 0.8"/>
      </g>
     </g>
     <g id="text_5">
      <!-- 40.0% -->
      <g transform="translate(30.514375 153.890941)scale(0.12 -0.12)">
       <defs>
        <path id="FreeSerif-34" d="M 3021 1478 
L 3021 1069 
L 2368 1069 
L 2368 0 
L 1875 0 
L 1875 1069 
L 77 1069 
L 77 1478 
L 2086 4326 
L 2368 4326 
L 2368 1478 
L 3021 1478 
z
M 1869 1478 
L 1869 3674 
L 333 1478 
L 1869 1478 
z
" transform="scale(0.015625)"/>
       </defs>
       <use xlink:href="#FreeSerif-34"/>
       <use xlink:href="#FreeSerif-30" x="49.999985"/>
       <use xlink:href="#FreeSerif-2e" x="99.999969"/>
       <use xlink:href="#FreeSerif-30" x="124.999954"/>
       <use xlink:href="#FreeSerif-25" x="174.999939"/>
      </g>
     </g>
    </g>
    <g id="ytick_4">
     <g id="line2d_12">
      <path d="M 68.51 104.903961 
L 595.51 104.903961 
" clip-path="url(#pb3d70619ab)" style="fill: none; stroke-dasharray: 0.8,1.32; stroke-dashoffset: 0; stroke: #b0b0b0; stroke-opacity: 0.8; stroke-width: 0.8"/>
     </g>
     <g id="line2d_13">
      <g>
       <use xlink:href="#m80109b5966" x="68.51" y="104.903961" style="stroke: #000000; stroke-width: 0.8"/>
      </g>
     </g>
     <g id="text_6">
      <!-- 60.0% -->
      <g transform="translate(30.514375 109.001773)scale(0.12 -0.12)">
       <defs>
        <path id="FreeSerif-36" d="M 1651 -90 
Q 1005 -90 611 425 
Q 218 941 218 1786 
Q 218 2048 269 2326 
Q 320 2605 493 2960 
Q 666 3315 941 3596 
Q 1216 3878 1712 4099 
Q 2208 4320 2854 4378 
L 2867 4275 
Q 2112 4154 1606 3664 
Q 1101 3174 973 2451 
Q 1274 2630 1427 2684 
Q 1581 2739 1792 2739 
Q 2342 2739 2668 2377 
Q 2995 2016 2995 1402 
Q 2995 742 2620 326 
Q 2246 -90 1651 -90 
z
M 1549 2445 
Q 1114 2445 963 2253 
Q 813 2061 813 1683 
Q 813 941 1056 515 
Q 1299 90 1722 90 
Q 2061 90 2240 374 
Q 2419 659 2419 1184 
Q 2419 1786 2192 2115 
Q 1965 2445 1549 2445 
z
" transform="scale(0.015625)"/>
       </defs>
       <use xlink:href="#FreeSerif-36"/>
       <use xlink:href="#FreeSerif-30" x="49.999985"/>
       <use xlink:href="#FreeSerif-2e" x="99.999969"/>
       <use xlink:href="#FreeSerif-30" x="124.999954"/>
       <use xlink:href="#FreeSerif-25" x="174.999939"/>
      </g>
     </g>
    </g>
    <g id="ytick_5">
     <g id="line2d_14">
      <path d="M 68.51 60.014793 
L 595.51 60.014793 
" clip-path="url(#pb3d70619ab)" style="fill: none; stroke-dasharray: 0.8,1.32; stroke-dashoffset: 0; stroke: #b0b0b0; stroke-opacity: 0.8; stroke-width: 0.8"/>
     </g>
     <g id="line2d_15">
      <g>
       <use xlink:href="#m80109b5966" x="68.51" y="60.014793" style="stroke: #000000; stroke-width: 0.8"/>
      </g>
     </g>
     <g id="text_7">
      <!-- 80.0% -->
      <g transform="translate(30.514375 64.112605)scale(0.12 -0.12)">
       <defs>
        <path id="FreeSerif-38" d="M 1856 2374 
Q 2432 1946 2640 1654 
Q 2848 1363 2848 992 
Q 2848 499 2505 204 
Q 2163 -90 1587 -90 
Q 1043 -90 700 204 
Q 358 499 358 966 
Q 358 1293 515 1513 
Q 672 1734 1190 2125 
Q 685 2566 541 2784 
Q 397 3002 397 3315 
Q 397 3750 742 4038 
Q 1088 4326 1613 4326 
Q 2093 4326 2403 4070 
Q 2714 3814 2714 3418 
Q 2714 3091 2522 2860 
Q 2330 2630 1856 2374 
z
M 1357 1997 
Q 1075 1773 960 1549 
Q 845 1325 845 1018 
Q 845 602 1069 346 
Q 1293 90 1658 90 
Q 1971 90 2166 285 
Q 2362 480 2362 794 
Q 2362 896 2339 985 
Q 2317 1075 2294 1142 
Q 2272 1210 2205 1293 
Q 2138 1376 2096 1424 
Q 2054 1472 1945 1561 
Q 1837 1651 1782 1689 
Q 1728 1728 1577 1837 
Q 1427 1946 1357 1997 
z
M 1670 2490 
Q 1677 2496 1757 2550 
Q 1837 2605 1872 2637 
Q 1907 2669 1980 2736 
Q 2054 2803 2092 2864 
Q 2131 2925 2179 3011 
Q 2227 3098 2249 3203 
Q 2272 3309 2272 3424 
Q 2272 3757 2080 3952 
Q 1888 4147 1562 4147 
Q 1261 4147 1065 3968 
Q 870 3789 870 3514 
Q 870 3245 1056 3008 
Q 1242 2771 1670 2490 
z
" transform="scale(0.015625)"/>
       </defs>
       <use xlink:href="#FreeSerif-38"/>
       <use xlink:href="#FreeSerif-30" x="49.999985"/>
       <use xlink:href="#FreeSerif-2e" x="99.999969"/>
       <use xlink:href="#FreeSerif-30" x="124.999954"/>
       <use xlink:href="#FreeSerif-25" x="174.999939"/>
      </g>
     </g>
    </g>
    <g id="ytick_6">
     <g id="line2d_16">
      <path d="M 68.51 15.125625 
L 595.51 15.125625 
" clip-path="url(#pb3d70619ab)" style="fill: none; stroke-dasharray: 0.8,1.32; stroke-dashoffset: 0; stroke: #b0b0b0; stroke-opacity: 0.8; stroke-width: 0.8"/>
     </g>
     <g id="line2d_17">
      <g>
       <use xlink:href="#m80109b5966" x="68.51" y="15.125625" style="stroke: #000000; stroke-width: 0.8"/>
      </g>
     </g>
     <g id="text_8">
      <!-- 100.0% -->
      <g transform="translate(24.514375 19.223437)scale(0.12 -0.12)">
       <defs>
        <path id="FreeSerif-31" d="M 1171 3795 
Q 1056 3795 710 3654 
L 710 3744 
L 1862 4326 
L 1914 4314 
L 1914 474 
Q 1914 243 2029 172 
Q 2144 102 2522 96 
L 2522 0 
L 755 0 
L 755 96 
Q 1114 109 1238 201 
Q 1363 294 1363 595 
L 1363 3494 
Q 1363 3795 1171 3795 
z
" transform="scale(0.015625)"/>
       </defs>
       <use xlink:href="#FreeSerif-31"/>
       <use xlink:href="#FreeSerif-30" x="49.999985"/>
       <use xlink:href="#FreeSerif-30" x="99.999969"/>
       <use xlink:href="#FreeSerif-2e" x="149.999954"/>
       <use xlink:href="#FreeSerif-30" x="174.999939"/>
       <use xlink:href="#FreeSerif-25" x="224.999924"/>
      </g>
     </g>
    </g>
    <g id="text_9">
     <!-- Accuracy -->
     <g transform="translate(18.334688 145.818857)rotate(-90)scale(0.1 -0.1)">
      <defs>
       <path id="FreeSerif-41" d="M 4518 122 
L 4518 0 
L 2886 0 
L 2886 122 
Q 3142 128 3238 173 
Q 3334 218 3334 339 
Q 3334 493 3213 768 
L 2950 1382 
L 1274 1382 
L 979 634 
Q 928 499 928 384 
Q 928 122 1363 122 
L 1363 0 
L 96 0 
L 96 122 
Q 333 134 464 304 
Q 595 474 890 1171 
L 2221 4314 
L 2349 4314 
L 3942 678 
Q 4096 326 4198 230 
Q 4301 134 4518 122 
z
M 1382 1645 
L 2861 1645 
L 2118 3405 
L 1382 1645 
z
" transform="scale(0.015625)"/>
       <path id="FreeSerif-63" d="M 160 1363 
Q 160 2074 579 2509 
Q 998 2944 1562 2944 
Q 1965 2944 2256 2749 
Q 2547 2554 2547 2285 
Q 2547 2176 2457 2096 
Q 2368 2016 2240 2016 
Q 2022 2016 1939 2310 
L 1901 2451 
Q 1850 2630 1773 2694 
Q 1696 2758 1523 2758 
Q 1133 2758 893 2448 
Q 653 2138 653 1645 
Q 653 1094 931 745 
Q 1210 397 1645 397 
Q 1920 397 2118 528 
Q 2317 659 2547 998 
L 2637 941 
Q 2573 813 2525 729 
Q 2477 646 2352 480 
Q 2227 314 2105 211 
Q 1984 109 1785 22 
Q 1587 -64 1376 -64 
Q 845 -64 502 336 
Q 160 736 160 1363 
z
" transform="scale(0.015625)"/>
       <path id="FreeSerif-75" d="M 3072 320 
L 3072 230 
Q 2573 96 2195 -58 
L 2170 -45 
L 2170 486 
Q 2150 467 2057 371 
Q 1965 275 1926 240 
Q 1888 205 1795 131 
Q 1702 58 1632 26 
Q 1562 -6 1453 -35 
Q 1344 -64 1235 -64 
Q 883 -64 672 163 
Q 461 390 461 768 
L 461 2381 
Q 461 2605 377 2691 
Q 294 2778 64 2790 
L 64 2880 
L 998 2880 
L 998 794 
Q 998 595 1132 451 
Q 1267 307 1453 307 
Q 1523 307 1619 326 
Q 1715 346 1840 400 
Q 1965 454 2051 572 
Q 2138 691 2138 864 
L 2138 2368 
Q 2138 2605 2051 2681 
Q 1965 2758 1664 2771 
L 1664 2880 
L 2675 2880 
L 2675 685 
Q 2675 461 2745 390 
Q 2816 320 3040 320 
L 3072 320 
z
" transform="scale(0.015625)"/>
       <path id="FreeSerif-72" d="M 1926 2317 
Q 1830 2317 1689 2429 
Q 1549 2541 1504 2541 
Q 1376 2541 1216 2355 
Q 1056 2170 1056 2016 
L 1056 576 
Q 1056 301 1165 205 
Q 1274 109 1600 96 
L 1600 0 
L 64 0 
L 64 96 
Q 371 154 444 224 
Q 518 294 518 538 
L 518 2138 
Q 518 2349 470 2435 
Q 422 2522 301 2522 
Q 198 2522 77 2496 
L 77 2598 
Q 589 2765 1024 2944 
L 1056 2931 
L 1056 2342 
Q 1293 2682 1459 2813 
Q 1626 2944 1824 2944 
Q 1990 2944 2083 2854 
Q 2176 2765 2176 2605 
Q 2176 2470 2109 2393 
Q 2042 2317 1926 2317 
z
" transform="scale(0.015625)"/>
      </defs>
      <use xlink:href="#FreeSerif-41"/>
      <use xlink:href="#FreeSerif-63" x="69.099991"/>
      <use xlink:href="#FreeSerif-63" x="112.499985"/>
      <use xlink:href="#FreeSerif-75" x="154.899979"/>
      <use xlink:href="#FreeSerif-72" x="203.899963"/>
      <use xlink:href="#FreeSerif-61" x="238.399948"/>
      <use xlink:href="#FreeSerif-63" x="281.399933"/>
      <use xlink:href="#FreeSerif-79" x="322.299927"/>
     </g>
    </g>
   </g>
   <g id="patch_3">
    <path d="M 92.464545 239.571464 
L 136.46269 239.571464 
L 136.46269 75.398804 
L 92.464545 75.398804 
z
" clip-path="url(#pb3d70619ab)" style="fill: #d9c6b0"/>
   </g>
   <g id="patch_4">
    <path d="M 190.2382 239.571464 
L 234.236345 239.571464 
L 234.236345 177.576194 
L 190.2382 177.576194 
z
" clip-path="url(#pb3d70619ab)" style="fill: #d9c6b0"/>
   </g>
   <g id="patch_5">
    <path d="M 288.011855 239.571464 
L 332.01 239.571464 
L 332.01 74.250744 
L 288.011855 74.250744 
z
" clip-path="url(#pb3d70619ab)" style="fill: #d9c6b0"/>
   </g>
   <g id="patch_6">
    <path d="M 385.78551 239.571464 
L 429.783655 239.571464 
L 429.783655 87.45344 
L 385.78551 87.45344 
z
" clip-path="url(#pb3d70619ab)" style="fill: #d9c6b0"/>
   </g>
   <g id="patch_7">
    <path d="M 483.559165 239.571464 
L 527.55731 239.571464 
L 527.55731 72.528653 
L 483.559165 72.528653 
z
" clip-path="url(#pb3d70619ab)" style="fill: #d9c6b0"/>
   </g>
   <g id="LineCollection_1">
    <path d="M 114.463618 75.398804 
L 114.463618 75.398804 
" clip-path="url(#pb3d70619ab)" style="fill: none; stroke: #000000; stroke-width: 1.5"/>
   </g>
   <g id="LineCollection_2">
    <path d="M 212.237273 177.576194 
L 212.237273 177.576194 
" clip-path="url(#pb3d70619ab)" style="fill: none; stroke: #000000; stroke-width: 1.5"/>
   </g>
   <g id="LineCollection_3">
    <path d="M 310.010928 74.250744 
L 310.010928 74.250744 
" clip-path="url(#pb3d70619ab)" style="fill: none; stroke: #000000; stroke-width: 1.5"/>
   </g>
   <g id="LineCollection_4">
    <path d="M 407.784583 87.45344 
L 407.784583 87.45344 
" clip-path="url(#pb3d70619ab)" style="fill: none; stroke: #000000; stroke-width: 1.5"/>
   </g>
   <g id="LineCollection_5">
    <path d="M 505.558237 72.528653 
L 505.558237 72.528653 
" clip-path="url(#pb3d70619ab)" style="fill: none; stroke: #000000; stroke-width: 1.5"/>
   </g>
   <g id="patch_8">
    <path d="M 68.51 239.571464 
L 68.51 15.125625 
" style="fill: none; stroke: #000000; stroke-width: 0.8; stroke-linejoin: miter; stroke-linecap: square"/>
   </g>
   <g id="patch_9">
    <path d="M 595.51 239.571464 
L 595.51 15.125625 
" style="fill: none; stroke: #000000; stroke-width: 0.8; stroke-linejoin: miter; stroke-linecap: square"/>
   </g>
   <g id="patch_10">
    <path d="M 68.51 239.571464 
L 595.51 239.571464 
" style="fill: none; stroke: #000000; stroke-width: 0.8; stroke-linejoin: miter; stroke-linecap: square"/>
   </g>
   <g id="patch_11">
    <path d="M 68.51 15.125625 
L 595.51 15.125625 
" style="fill: none; stroke: #000000; stroke-width: 0.8; stroke-linejoin: miter; stroke-linecap: square"/>
   </g>
   <g id="text_10">
    <!-- 73.1% -->
    <g transform="translate(101.548774 73.398804)scale(0.1 -0.1)">
     <defs>
      <path id="FreeSerif-37" d="M 2874 4237 
L 2874 4134 
L 1517 -51 
L 1101 -51 
L 2368 3763 
L 979 3763 
Q 717 3763 579 3667 
Q 442 3571 237 3245 
L 128 3296 
L 506 4237 
L 2874 4237 
z
" transform="scale(0.015625)"/>
      <path id="FreeSerif-33" d="M 518 499 
Q 666 499 957 320 
Q 1248 141 1466 141 
Q 1818 141 2061 416 
Q 2304 691 2304 1094 
Q 2304 1344 2217 1536 
Q 2131 1728 1996 1833 
Q 1862 1939 1676 2006 
Q 1491 2074 1328 2093 
Q 1165 2112 979 2112 
L 979 2195 
Q 1197 2272 1353 2345 
Q 1510 2419 1683 2544 
Q 1856 2669 1949 2848 
Q 2042 3027 2042 3258 
Q 2042 3558 1846 3750 
Q 1651 3942 1338 3942 
Q 1037 3942 809 3779 
Q 582 3616 384 3264 
L 288 3290 
Q 454 3744 739 4035 
Q 1024 4326 1549 4326 
Q 1990 4326 2268 4083 
Q 2547 3840 2547 3450 
Q 2547 3187 2412 2988 
Q 2278 2790 1946 2566 
Q 2330 2400 2547 2141 
Q 2765 1882 2765 1402 
Q 2765 723 2262 316 
Q 1760 -90 998 -90 
Q 666 -90 470 9 
Q 275 109 275 275 
Q 275 378 342 438 
Q 410 499 518 499 
z
" transform="scale(0.015625)"/>
     </defs>
     <use xlink:href="#FreeSerif-37"/>
     <use xlink:href="#FreeSerif-33" x="49.999985"/>
     <use xlink:href="#FreeSerif-2e" x="99.999969"/>
     <use xlink:href="#FreeSerif-31" x="124.999954"/>
     <use xlink:href="#FreeSerif-25" x="174.999939"/>
    </g>
   </g>
   <g id="text_11">
    <!-- 27.6% -->
    <g transform="translate(199.322429 175.576194)scale(0.1 -0.1)">
     <use xlink:href="#FreeSerif-32"/>
     <use xlink:href="#FreeSerif-37" x="49.999985"/>
     <use xlink:href="#FreeSerif-2e" x="99.999969"/>
     <use xlink:href="#FreeSerif-36" x="124.999954"/>
     <use xlink:href="#FreeSerif-25" x="174.999939"/>
    </g>
   </g>
   <g id="text_12">
    <!-- 73.7% -->
    <g transform="translate(297.096084 72.250744)scale(0.1 -0.1)">
     <use xlink:href="#FreeSerif-37"/>
     <use xlink:href="#FreeSerif-33" x="49.999985"/>
     <use xlink:href="#FreeSerif-2e" x="99.999969"/>
     <use xlink:href="#FreeSerif-37" x="124.999954"/>
     <use xlink:href="#FreeSerif-25" x="174.999939"/>
    </g>
   </g>
   <g id="text_13">
    <!-- 67.8% -->
    <g transform="translate(394.869739 85.45344)scale(0.1 -0.1)">
     <use xlink:href="#FreeSerif-36"/>
     <use xlink:href="#FreeSerif-37" x="49.999985"/>
     <use xlink:href="#FreeSerif-2e" x="99.999969"/>
     <use xlink:href="#FreeSerif-38" x="124.999954"/>
     <use xlink:href="#FreeSerif-25" x="174.999939"/>
    </g>
   </g>
   <g id="text_14">
    <!-- 74.4% -->
    <g transform="translate(492.643394 70.528653)scale(0.1 -0.1)">
     <use xlink:href="#FreeSerif-37"/>
     <use xlink:href="#FreeSerif-34" x="49.999985"/>
     <use xlink:href="#FreeSerif-2e" x="99.999969"/>
     <use xlink:href="#FreeSerif-34" x="124.999954"/>
     <use xlink:href="#FreeSerif-25" x="174.999939"/>
    </g>
   </g>
   <g id="legend_1">
    <g id="patch_12">
     <path d="M 517.569375 51.475625 
L 590.51 51.475625 
L 590.51 20.125625 
L 517.569375 20.125625 
z
" style="fill: #ffffff; opacity: 0.8; stroke: #cccccc; stroke-linejoin: miter"/>
    </g>
    <g id="patch_13">
     <path d="M 521.569375 31.125625 
L 541.569375 31.125625 
L 541.569375 24.125625 
L 521.569375 24.125625 
z
" style="fill: #d9c6b0"/>
    </g>
    <g id="text_15">
     <!-- Accuracy -->
     <g transform="translate(549.569375 31.125625)scale(0.1 -0.1)">
      <use xlink:href="#FreeSerif-41"/>
      <use xlink:href="#FreeSerif-63" x="69.099991"/>
      <use xlink:href="#FreeSerif-63" x="112.499985"/>
      <use xlink:href="#FreeSerif-75" x="154.899979"/>
      <use xlink:href="#FreeSerif-72" x="203.899963"/>
      <use xlink:href="#FreeSerif-61" x="238.399948"/>
      <use xlink:href="#FreeSerif-63" x="281.399933"/>
      <use xlink:href="#FreeSerif-79" x="322.299927"/>
     </g>
    </g>
    <g id="patch_14">
     <path d="M 521.569375 45.305313 
L 541.569375 45.305313 
L 541.569375 38.305313 
L 521.569375 38.305313 
z
" style="fill: #789f8a"/>
    </g>
    <g id="text_16">
     <!-- F1-Score -->
     <g transform="translate(549.569375 45.305313)scale(0.1 -0.1)">
      <defs>
       <path id="FreeSerif-46" d="M 3085 1478 
L 2938 1478 
Q 2880 1869 2752 1981 
Q 2624 2093 2234 2093 
L 1306 2093 
L 1306 762 
Q 1306 371 1411 256 
Q 1517 141 1888 122 
L 1888 0 
L 96 0 
L 96 122 
Q 461 147 557 259 
Q 653 371 653 768 
L 653 3539 
Q 653 3878 550 3984 
Q 448 4090 96 4115 
L 96 4237 
L 3494 4237 
L 3514 3322 
L 3354 3322 
Q 3270 3750 3097 3872 
Q 2925 3994 2381 3994 
L 1510 3994 
Q 1382 3994 1344 3952 
Q 1306 3910 1306 3776 
L 1306 2355 
L 2234 2355 
Q 2618 2355 2749 2467 
Q 2880 2579 2938 2963 
L 3085 2963 
L 3085 1478 
z
" transform="scale(0.015625)"/>
       <path id="FreeSerif-2d" d="M 250 1645 
L 1824 1645 
L 1824 1242 
L 250 1242 
L 250 1645 
z
" transform="scale(0.015625)"/>
       <path id="FreeSerif-53" d="M 2419 864 
Q 2419 1165 2208 1398 
Q 1997 1632 1696 1798 
Q 1395 1965 1097 2141 
Q 800 2317 589 2592 
Q 378 2867 378 3232 
Q 378 3718 707 4022 
Q 1037 4326 1485 4326 
Q 1754 4326 2067 4217 
Q 2381 4109 2445 4109 
Q 2611 4109 2650 4326 
L 2784 4326 
L 2925 2963 
L 2765 2963 
Q 2611 3526 2294 3795 
Q 1978 4064 1594 4064 
Q 1299 4064 1113 3897 
Q 928 3731 928 3469 
Q 928 3213 1145 2982 
Q 1363 2752 1869 2470 
Q 2502 2131 2784 1801 
Q 3066 1472 3066 1075 
Q 3066 582 2688 246 
Q 2310 -90 1760 -90 
Q 1440 -90 1110 19 
Q 781 128 704 128 
Q 634 128 582 67 
Q 531 6 525 -83 
L 384 -83 
L 192 1274 
L 339 1274 
Q 576 691 889 416 
Q 1203 141 1632 141 
Q 1984 141 2201 342 
Q 2419 544 2419 864 
z
" transform="scale(0.015625)"/>
       <path id="FreeSerif-6f" d="M 1574 2944 
Q 2189 2944 2585 2534 
Q 2982 2125 2982 1498 
Q 2982 832 2572 384 
Q 2163 -64 1561 -64 
Q 960 -64 560 368 
Q 160 800 160 1446 
Q 160 2106 553 2525 
Q 947 2944 1574 2944 
z
M 736 1760 
Q 736 1075 985 595 
Q 1235 115 1638 115 
Q 1997 115 2201 422 
Q 2406 730 2406 1274 
Q 2406 1933 2150 2349 
Q 1894 2765 1491 2765 
Q 1152 2765 944 2489 
Q 736 2214 736 1760 
z
" transform="scale(0.015625)"/>
      </defs>
      <use xlink:href="#FreeSerif-46"/>
      <use xlink:href="#FreeSerif-31" x="56.399994"/>
      <use xlink:href="#FreeSerif-2d" x="106.399979"/>
      <use xlink:href="#FreeSerif-53" x="139.699966"/>
      <use xlink:href="#FreeSerif-63" x="192.59996"/>
      <use xlink:href="#FreeSerif-6f" x="235.999954"/>
      <use xlink:href="#FreeSerif-72" x="284.099945"/>
      <use xlink:href="#FreeSerif-65" x="317.59993"/>
     </g>
    </g>
   </g>
  </g>
  <g id="axes_2">
   <g id="matplotlib.axis_3">
    <g id="ytick_7">
     <g id="line2d_18">
      <defs>
       <path id="m08bd20c637" d="M 0 0 
L 3.5 0 
" style="stroke: #000000; stroke-width: 0.8"/>
      </defs>
      <g>
       <use xlink:href="#m08bd20c637" x="595.51" y="239.571464" style="stroke: #000000; stroke-width: 0.8"/>
      </g>
     </g>
     <g id="text_17">
      <!-- 0.00 -->
      <g transform="translate(602.51 243.669276)scale(0.12 -0.12)">
       <use xlink:href="#FreeSerif-30"/>
       <use xlink:href="#FreeSerif-2e" x="49.999985"/>
       <use xlink:href="#FreeSerif-30" x="74.999969"/>
       <use xlink:href="#FreeSerif-30" x="124.999954"/>
      </g>
     </g>
    </g>
    <g id="ytick_8">
     <g id="line2d_19">
      <g>
       <use xlink:href="#m08bd20c637" x="595.51" y="194.682296" style="stroke: #000000; stroke-width: 0.8"/>
      </g>
     </g>
     <g id="text_18">
      <!-- 0.20 -->
      <g transform="translate(602.51 198.780109)scale(0.12 -0.12)">
       <use xlink:href="#FreeSerif-30"/>
       <use xlink:href="#FreeSerif-2e" x="49.999985"/>
       <use xlink:href="#FreeSerif-32" x="74.999969"/>
       <use xlink:href="#FreeSerif-30" x="124.999954"/>
      </g>
     </g>
    </g>
    <g id="ytick_9">
     <g id="line2d_20">
      <g>
       <use xlink:href="#m08bd20c637" x="595.51" y="149.793128" style="stroke: #000000; stroke-width: 0.8"/>
      </g>
     </g>
     <g id="text_19">
      <!-- 0.40 -->
      <g transform="translate(602.51 153.890941)scale(0.12 -0.12)">
       <use xlink:href="#FreeSerif-30"/>
       <use xlink:href="#FreeSerif-2e" x="49.999985"/>
       <use xlink:href="#FreeSerif-34" x="74.999969"/>
       <use xlink:href="#FreeSerif-30" x="124.999954"/>
      </g>
     </g>
    </g>
    <g id="ytick_10">
     <g id="line2d_21">
      <g>
       <use xlink:href="#m08bd20c637" x="595.51" y="104.903961" style="stroke: #000000; stroke-width: 0.8"/>
      </g>
     </g>
     <g id="text_20">
      <!-- 0.60 -->
      <g transform="translate(602.51 109.001773)scale(0.12 -0.12)">
       <use xlink:href="#FreeSerif-30"/>
       <use xlink:href="#FreeSerif-2e" x="49.999985"/>
       <use xlink:href="#FreeSerif-36" x="74.999969"/>
       <use xlink:href="#FreeSerif-30" x="124.999954"/>
      </g>
     </g>
    </g>
    <g id="ytick_11">
     <g id="line2d_22">
      <g>
       <use xlink:href="#m08bd20c637" x="595.51" y="60.014793" style="stroke: #000000; stroke-width: 0.8"/>
      </g>
     </g>
     <g id="text_21">
      <!-- 0.80 -->
      <g transform="translate(602.51 64.112605)scale(0.12 -0.12)">
       <use xlink:href="#FreeSerif-30"/>
       <use xlink:href="#FreeSerif-2e" x="49.999985"/>
       <use xlink:href="#FreeSerif-38" x="74.999969"/>
       <use xlink:href="#FreeSerif-30" x="124.999954"/>
      </g>
     </g>
    </g>
    <g id="ytick_12">
     <g id="line2d_23">
      <g>
       <use xlink:href="#m08bd20c637" x="595.51" y="15.125625" style="stroke: #000000; stroke-width: 0.8"/>
      </g>
     </g>
     <g id="text_22">
      <!-- 1.00 -->
      <g transform="translate(602.51 19.223437)scale(0.12 -0.12)">
       <use xlink:href="#FreeSerif-31"/>
       <use xlink:href="#FreeSerif-2e" x="49.999985"/>
       <use xlink:href="#FreeSerif-30" x="74.999969"/>
       <use xlink:href="#FreeSerif-30" x="124.999954"/>
      </g>
     </g>
    </g>
    <g id="text_23">
     <!-- F1-Score -->
     <g transform="translate(634.339687 145.449326)rotate(-90)scale(0.1 -0.1)">
      <use xlink:href="#FreeSerif-46"/>
      <use xlink:href="#FreeSerif-31" x="56.399994"/>
      <use xlink:href="#FreeSerif-2d" x="106.399979"/>
      <use xlink:href="#FreeSerif-53" x="139.699966"/>
      <use xlink:href="#FreeSerif-63" x="192.59996"/>
      <use xlink:href="#FreeSerif-6f" x="235.999954"/>
      <use xlink:href="#FreeSerif-72" x="284.099945"/>
      <use xlink:href="#FreeSerif-65" x="317.59993"/>
     </g>
    </g>
   </g>
   <g id="patch_15">
    <path d="M 136.46269 239.571464 
L 180.460835 239.571464 
L 180.460835 118.224005 
L 136.46269 118.224005 
z
" clip-path="url(#pb3d70619ab)" style="fill: #789f8a"/>
   </g>
   <g id="patch_16">
    <path d="M 234.236345 239.571464 
L 278.23449 239.571464 
L 278.23449 183.954729 
L 234.236345 183.954729 
z
" clip-path="url(#pb3d70619ab)" style="fill: #789f8a"/>
   </g>
   <g id="patch_17">
    <path d="M 332.01 239.571464 
L 376.008145 239.571464 
L 376.008145 117.41847 
L 332.01 117.41847 
z
" clip-path="url(#pb3d70619ab)" style="fill: #789f8a"/>
   </g>
   <g id="patch_18">
    <path d="M 429.783655 239.571464 
L 473.7818 239.571464 
L 473.7818 117.170187 
L 429.783655 117.170187 
z
" clip-path="url(#pb3d70619ab)" style="fill: #789f8a"/>
   </g>
   <g id="patch_19">
    <path d="M 527.55731 239.571464 
L 571.555455 239.571464 
L 571.555455 143.803518 
L 527.55731 143.803518 
z
" clip-path="url(#pb3d70619ab)" style="fill: #789f8a"/>
   </g>
   <g id="LineCollection_6">
    <path d="M 158.461763 118.224005 
L 158.461763 118.224005 
" clip-path="url(#pb3d70619ab)" style="fill: none; stroke: #000000; stroke-width: 1.5"/>
   </g>
   <g id="LineCollection_7">
    <path d="M 256.235417 183.954729 
L 256.235417 183.954729 
" clip-path="url(#pb3d70619ab)" style="fill: none; stroke: #000000; stroke-width: 1.5"/>
   </g>
   <g id="LineCollection_8">
    <path d="M 354.009072 117.41847 
L 354.009072 117.41847 
" clip-path="url(#pb3d70619ab)" style="fill: none; stroke: #000000; stroke-width: 1.5"/>
   </g>
   <g id="LineCollection_9">
    <path d="M 451.782727 117.170187 
L 451.782727 117.170187 
" clip-path="url(#pb3d70619ab)" style="fill: none; stroke: #000000; stroke-width: 1.5"/>
   </g>
   <g id="LineCollection_10">
    <path d="M 549.556382 143.803518 
L 549.556382 143.803518 
" clip-path="url(#pb3d70619ab)" style="fill: none; stroke: #000000; stroke-width: 1.5"/>
   </g>
   <g id="patch_20">
    <path d="M 68.51 239.571464 
L 68.51 15.125625 
" style="fill: none; stroke: #000000; stroke-width: 0.8; stroke-linejoin: miter; stroke-linecap: square"/>
   </g>
   <g id="patch_21">
    <path d="M 595.51 239.571464 
L 595.51 15.125625 
" style="fill: none; stroke: #000000; stroke-width: 0.8; stroke-linejoin: miter; stroke-linecap: square"/>
   </g>
   <g id="patch_22">
    <path d="M 68.51 239.571464 
L 595.51 239.571464 
" style="fill: none; stroke: #000000; stroke-width: 0.8; stroke-linejoin: miter; stroke-linecap: square"/>
   </g>
   <g id="patch_23">
    <path d="M 68.51 15.125625 
L 595.51 15.125625 
" style="fill: none; stroke: #000000; stroke-width: 0.8; stroke-linejoin: miter; stroke-linecap: square"/>
   </g>
   <g id="text_24">
    <!-- 0.54 -->
    <g transform="translate(149.711763 116.224005)scale(0.1 -0.1)">
     <defs>
      <path id="FreeSerif-35" d="M 2285 1242 
Q 2285 1581 2134 1843 
Q 1984 2106 1769 2250 
Q 1555 2394 1289 2486 
Q 1024 2579 829 2608 
Q 634 2637 486 2637 
Q 410 2637 410 2688 
Q 410 2707 416 2720 
L 1114 4237 
L 2451 4237 
Q 2554 4237 2614 4269 
Q 2675 4301 2746 4403 
L 2803 4358 
L 2560 3789 
Q 2534 3731 2413 3731 
L 1158 3731 
L 890 3187 
Q 1824 3021 2278 2646 
Q 2733 2272 2733 1549 
Q 2733 1171 2614 876 
Q 2496 582 2313 403 
Q 2131 224 1891 109 
Q 1651 -6 1430 -48 
Q 1210 -90 986 -90 
Q 627 -90 416 16 
Q 205 122 205 307 
Q 205 544 480 544 
Q 659 544 944 345 
Q 1229 147 1395 147 
Q 1773 147 2029 464 
Q 2285 781 2285 1242 
z
" transform="scale(0.015625)"/>
     </defs>
     <use xlink:href="#FreeSerif-30"/>
     <use xlink:href="#FreeSerif-2e" x="49.999985"/>
     <use xlink:href="#FreeSerif-35" x="74.999969"/>
     <use xlink:href="#FreeSerif-34" x="124.999954"/>
    </g>
   </g>
   <g id="text_25">
    <!-- 0.25 -->
    <g transform="translate(247.485417 181.954729)scale(0.1 -0.1)">
     <use xlink:href="#FreeSerif-30"/>
     <use xlink:href="#FreeSerif-2e" x="49.999985"/>
     <use xlink:href="#FreeSerif-32" x="74.999969"/>
     <use xlink:href="#FreeSerif-35" x="124.999954"/>
    </g>
   </g>
   <g id="text_26">
    <!-- 0.54 -->
    <g transform="translate(345.259072 115.41847)scale(0.1 -0.1)">
     <use xlink:href="#FreeSerif-30"/>
     <use xlink:href="#FreeSerif-2e" x="49.999985"/>
     <use xlink:href="#FreeSerif-35" x="74.999969"/>
     <use xlink:href="#FreeSerif-34" x="124.999954"/>
    </g>
   </g>
   <g id="text_27">
    <!-- 0.55 -->
    <g transform="translate(443.032727 115.170187)scale(0.1 -0.1)">
     <use xlink:href="#FreeSerif-30"/>
     <use xlink:href="#FreeSerif-2e" x="49.999985"/>
     <use xlink:href="#FreeSerif-35" x="74.999969"/>
     <use xlink:href="#FreeSerif-35" x="124.999954"/>
    </g>
   </g>
   <g id="text_28">
    <!-- 0.43 -->
    <g transform="translate(540.806382 141.803518)scale(0.1 -0.1)">
     <use xlink:href="#FreeSerif-30"/>
     <use xlink:href="#FreeSerif-2e" x="49.999985"/>
     <use xlink:href="#FreeSerif-34" x="74.999969"/>
     <use xlink:href="#FreeSerif-33" x="124.999954"/>
    </g>
   </g>
  </g>
 </g>
 <defs>
  <clipPath id="pb3d70619ab">
   <rect x="68.51" y="15.125625" width="527" height="224.445839"/>
  </clipPath>
 </defs>
</svg>
